<?xml version="1.0" encoding="UTF-8"?>
<!DOCTYPE svg PUBLIC "-//W3C//DTD SVG 1.1//EN" "http://www.w3.org/Graphics/SVG/1.1/DTD/svg11.dtd">
<!-- Creator: CorelDRAW -->
<svg xmlns="http://www.w3.org/2000/svg" xml:space="preserve" width="297mm" height="210mm" version="1.1" style="shape-rendering:geometricPrecision; text-rendering:geometricPrecision; image-rendering:optimizeQuality; fill-rule:evenodd; clip-rule:evenodd"
viewBox="0 0 29700 21000"
 xmlns:xlink="http://www.w3.org/1999/xlink"
 xmlns:xodm="http://www.corel.com/coreldraw/odm/2003">
 <defs>
  <style type="text/css">
   <![CDATA[
    .str0 {stroke:#201E1E;stroke-width:7.62;stroke-miterlimit:22.9256}
    .fil1 {fill:none;fill-rule:nonzero}
    .fil0 {fill:#52658C;fill-rule:nonzero}
   ]]>
  </style>
 </defs>
 <g id="Capa_x0020_1">
  <metadata id="CorelCorpID_0Corel-Layer"/>
  <path class="fil0" d="M1793.84 3043.84l5.72 9.71 0 30.76c-37.45,66.37 -56.17,117.37 -56.17,153.79l6.24 30.76 -12.48 0 0 9.71 18.72 0 106.63 -18.61 42.65 0c7.8,0 11.97,8.9 11.97,28.33l12.48 0c65.53,0 105.59,8.9 118.58,28.33l6.25 0 211.7 30.76 74.9 0 217.41 115.75c24.45,14.57 36.93,40.47 36.93,78.51 13,0 33.81,58.28 62.41,175.65 -32.76,210.45 -86.33,359.39 -161.76,448.43l-106.62 156.22c-56.7,89.85 -112.87,148.93 -167.48,175.65 -7.29,26.71 -46.3,52.61 -117.56,78.51 -44.73,50.19 -105.06,75.28 -181,75.28l-111.31 30.76 -112.87 -18.62 13.52 87.42 -5.72 9.71c4.16,61.52 11.96,100.37 24.45,116.56l5.72 194.27 -5.72 215.31 56.17 407.95c8.32,0 11.96,17 11.96,50.19 35.9,137.6 97.79,245.26 186.21,322.15 0,25.91 41.61,60.71 124.84,106.85l48.88 0 0 28.33 -48.88 9.71c-147.2,-58.28 -256.95,-87.42 -329.25,-87.42 -118.59,0 -262.15,48.57 -429.63,146.51l-62.42 9.71 -6.24 -9.71 0 -28.33c55.13,0 129.51,-72.04 224.18,-215.31 61.89,-77.71 93.1,-178.08 93.1,-301.92l18.21 -146.51 -6.24 -28.33 6.24 -50.18 -12.49 -184.55 6.25 -106.85 0 -216.12c0,-96.32 -9.89,-216.12 -30.17,-360.2l18.2 -9.71 0 -18.62c-39.53,-46.14 -74.9,-68.8 -105.07,-68.8l-26 0c0,26.71 -4.16,40.47 -12.48,40.47 8.32,28.33 17.16,43.71 26,46.95l24.45 0 11.96 -18.62 0 -9.71 -5.72 -9.72 0 -8.9 5.72 0 12.48 18.62 0 18.61c0,19.43 -16.12,31.57 -48.89,38.05 -41.61,-26.71 -62.42,-65.57 -62.42,-115.75 13.01,-52.61 42.14,-78.52 86.87,-78.52l36.41 0 32.25 9.72 0 -9.72c0,-162.69 -6.25,-244.45 -18.21,-244.45l5.72 -66.37 0 -87.42 -19.76 -147.32 0 -18.61 14.04 -137.61 -19.76 -310.82c-52.02,38.04 -86.87,56.66 -105.59,56.66 -66.06,-20.24 -98.83,-65.57 -98.83,-135.18l0 -8.9c8.32,-72.85 28.61,-109.27 60.86,-109.27l32.25 0 30.17 49.37 -5.73 68.8 5.73 0c105.58,0 217.93,-106.84 337.04,-322.15zm-100.9 555.27l0 77.71 6.24 50.18 -6.24 59.09 0 46.95 14.04 69.61 -14.04 18.62 0 40.47 6.24 38.04 -6.24 68.8 0 87.42 6.24 263.07 13.52 19.43 0 77.7 93.11 9.72 56.69 0c85.3,-33.19 213.77,-123.85 385.42,-272.78 94.15,-118.18 148.24,-238.79 161.24,-360.2l0 -30.76c-29.12,-161.89 -67.09,-242.02 -112.34,-242.02 -56.18,-79.33 -122.24,-118.99 -198.18,-118.99l-6.24 0 -19.76 9.71 -30.69 -9.71 -56.18 0c-190.89,0 -286.59,17 -286.59,50.18l-6.24 47.76z"/>
  <path id="_1" class="fil0" d="M3360.49 3309.33c0,17.81 67.62,39.66 202.33,66.38l243.95 175.64c73.33,79.33 109.74,169.18 109.74,270.36 0,59.89 -38.49,186.17 -115.99,379.62 -57.73,102.8 -102.47,153.79 -133.67,153.79 0,14.57 -30.69,37.24 -91.55,68.81 -87.38,89.84 -171.12,135.17 -251.74,135.17 -1.04,14.57 -17.17,26.71 -48.38,38.05 133.68,235.54 200.77,365.05 200.77,388.53 0,17.8 47.34,136.79 142,358.58 22.37,59.89 40.58,124.65 54.62,194.26l85.3 251.74 6.24 -9.72 12.49 0 0 18.62 -12.49 0 0 19.43c11.44,1.61 33.81,59.89 67.1,174.83 101.43,271.98 209.61,507.52 324.56,707.45 0,59.9 93.63,166.75 280.35,319.73 0,41.28 77.51,72.85 231.46,94.7l6.25 0c63.98,0 131.59,-54.23 202.85,-163.5 62.94,-97.94 95.18,-175.65 97.26,-232.31 0,-71.23 -28.08,-184.55 -85.3,-339.15l-11.96 0c-139.39,41.28 -209.1,93.08 -209.1,156.22l0 47.75c0,154.61 18.73,232.31 55.14,232.31l56.17 9.71c69.18,0 104.03,-32.37 104.03,-97.13l18.21 -68.8c0,-39.66 -28.61,-84.18 -85.31,-132.75l-24.44 -9.71c-26.53,0 -47.33,21.85 -62.42,66.37l0 47.76c0,58.28 16.65,87.42 49.93,87.42 21.33,0 37.97,-17 48.9,-50.19l0 -46.94 -18.21 -28.33 -6.24 0c-22.36,0 -36.41,12.14 -42.65,38.04l0 18.62 12.48 18.61 23.93 0 6.24 -28.33 -11.96 -18.61 0 -9.72 5.72 0 12.48 19.43 0 37.23c-4.16,21.05 -16.12,31.57 -36.41,31.57 -25.48,-27.52 -38.49,-59.9 -38.49,-97.94l68.66 -66.37c36.41,29.95 55.14,67.99 55.14,114.13l0 40.47c-46.81,56.66 -81.66,84.99 -104.03,84.99 -41.61,-81.75 -62.42,-140.03 -62.42,-173.22 19.25,-67.99 48.37,-118.99 86.86,-153.79l12.49 0c35.37,3.23 82.18,57.47 139.92,163.5l0 38.05c-4.17,66.37 -22.37,140.84 -54.62,222.59l-55.13 0 -117.04 9.72c-44.73,0 -67.09,-71.24 -67.09,-213.7 -12.48,-23.47 -18.2,-48.56 -18.2,-75.27l0 -135.18c50.45,-50.99 128.47,-95.51 233.01,-135.18 50.98,0 85.31,35.62 103.51,106.85 13.53,5.67 41.61,118.18 85.3,336.73l12.49 30.75c-114.95,237.17 -221.06,369.11 -318.85,395.82l-176.32 9.71 -207.53 -106.84c-8.85,-16.19 -93.11,-84.18 -251.23,-203.98 -134.2,-227.45 -215.34,-414.43 -243.95,-560.13 -18.2,-17 -60.85,-114.13 -127.95,-291.4l-202.85 -492.95 -67.1 -272.78c-21.32,-28.33 -45.77,-83.37 -72.82,-163.5 -19.24,-22.67 -72.3,-126.27 -158.64,-310.83 -54.09,-84.18 -94.66,-125.46 -121.71,-125.46l-36.93 0 -18.2 28.33 0 8.91c0,21.04 10.4,30.75 30.68,30.75l0 19.43 -18.2 0 0 76.09 18.2 40.47 5.73 194.26 -5.73 210.46 54.62 407.95c8.32,0 12.48,17 12.48,50.19 35.37,135.98 96.23,242.02 182.57,317.3 0,27.52 40.57,63.13 122.23,106.84l48.37 0 0 30.76 -48.37 9.72c-144.6,-58.28 -252.27,-87.42 -323.52,-87.42 -116.51,0 -257.47,47.75 -421.83,144.08l-60.86 9.71 -6.24 -9.71 0 -28.33c54.09,0 126.91,-71.23 219.49,-212.89 61.91,-77.7 93.11,-178.07 93.11,-301.11l18.2 -144.89 -6.24 -28.33 6.24 -50.18 -12.48 -182.12 6.24 -106.85 0 -272.78 -6.24 -97.13 6.24 -85.8 0 -87.42 -31.73 -9.71 -18.72 0c-24.97,0 -45.77,21.85 -60.85,66.37l0 12.14c9.36,25.09 19.24,38.04 30.69,38.04l0 18.62c-57.22,0 -85.31,-32.38 -85.31,-97.13 0,-64.76 46.81,-110.08 139.92,-135.18l14.04 0 0 -28.33 -14.04 -30.76 0 -106.84c-11.97,0 -18.21,-51.81 -18.21,-154.6l-11.96 -18.62 5.72 -68.8 0 -84.99c0,-54.24 -5.72,-97.14 -18.21,-128.7l6.25 -106.04c-9.36,0 -23.41,-71.23 -42.66,-213.69 -11.44,-12.95 -21.32,-51.81 -30.68,-116.56 -10.92,-38.04 -31.21,-56.66 -60.86,-56.66l-73.34 38.04 -11.96 -28.33 0 -9.71c58.78,-71.23 285.04,-116.56 678.26,-135.18zm-207.54 232.31l-18.2 -9.71c-44.74,24.28 -67.1,63.13 -67.1,116.56 -16.13,0 -24.45,71.23 -24.45,213.69l12.49 46.95 -12.49 19.42 0 40.47 6.25 37.24 -6.25 68.8 0 85.8 6.25 263.07 12.48 18.61 -6.24 88.23 6.24 0c26,-26.71 46.29,-40.47 60.86,-40.47l91.02 0c143.55,-64.75 251.23,-125.46 323.52,-182.93 109.75,-103.61 178.93,-233.93 208.58,-388.53l0 -47.76c-28.61,-161.08 -65.02,-241.21 -109.75,-241.21 -54.62,-77.71 -120.15,-116.56 -196.62,-116.56l-6.23 0 -18.21 9.71 -30.17 -9.71 -12.48 0 -158.64 9.71 -18.21 -9.71 -42.65 28.33z"/>
  <path id="_2" class="fil0" d="M4500.11 3306.9l158.64 0c111.83,0 190.89,31.57 237.7,94.71 11.44,0 27.57,22.66 48.89,66.37 78.02,47.76 135.24,123.85 170.6,228.26l103.51 151.37c0,39.66 24.45,112.51 73.34,218.55 40.57,71.23 60.85,200.74 60.85,388.53l6.25 85.8 0 378.81c-38.49,148.94 -71.26,256.59 -97.79,322.97 -57.73,132.74 -122.75,303.54 -195.04,512.37 -7.81,0 -11.97,12.14 -11.97,37.23 -19.24,0 -74.38,92.28 -164.88,275.21 -30.17,51 -60.86,76.09 -91.02,76.09 -63.99,0 -123.28,-34.81 -176.85,-104.42 -52.02,-36.42 -117.04,-93.08 -195.05,-170.79 -12.49,0 -58.78,-38.04 -140.44,-113.32 -88.42,-62.33 -147.2,-150.55 -176.85,-266.3l-109.74 -360.2 -5.72 0 5.72 -46.95c-17.17,-51 -29.13,-177.27 -36.41,-379.63 -11.97,0 -18.21,-57.47 -18.21,-170.79l18.21 -19.42 -6.24 -94.71 0 -161.08c0,-18.61 12.48,-59.89 36.93,-123.03 0,-33.19 34.32,-147.32 103.5,-341.58l67.1 -161.08c0,-30.76 46.81,-99.56 139.91,-208.84 32.78,0 79.58,-34.8 140.44,-104.41l54.62 -9.72zm-365.66 1223.87l0 142.46c0,207.22 20.28,339.97 60.86,398.25 0,23.47 32.76,131.12 97.78,322.15 37.45,26.71 108.71,112.51 213.26,256.59 80.1,61.52 139.39,124.66 176.84,189.41l79.07 28.33 109.74 -113.32c50.97,-64.75 101.95,-178.88 152.4,-341.58 89.46,-291.4 134.2,-547.18 134.2,-768.97 -16.13,-162.69 -42.66,-292.2 -79.06,-388.53 -9.37,-86.61 -54.1,-210.45 -134.2,-369.91l-115.99 -142.46 -182.57 -113.32 -48.89 0c-26.53,0 -87.38,53.42 -183.09,161.08 -67.1,91.46 -123.79,208.83 -170.6,350.48l-109.75 389.34z"/>
  <path id="_3" class="fil0" d="M6895.85 3062.45l62.41 9.72 0 19.42c-122.75,56.66 -211.69,148.13 -266.83,274.4l-135.75 379.63c0,33.19 -16.12,91.47 -48.38,175.65 -177.88,464.61 -266.82,724.44 -266.82,780.29 0,18.62 -18.21,68 -55.14,146.51 -13,114.13 -31.72,201.55 -56.17,263.88l-6.24 127.89 0 175.65c20.28,45.33 30.69,84.18 30.69,115.75l0 59.08c0,167.56 39,304.35 117.55,410.39 34.32,115.75 87.9,199.93 161.23,254.16l56.18 0c30.69,0 48.89,-32.38 55.13,-97.13l0 -59.9c-11.96,-38.85 -30.68,-59.09 -55.13,-59.09l-7.28 0 -30.69 40.47 0 -21.04c6.24,-27.52 16.13,-46.14 30.69,-57.47l26 0c48.38,16.19 72.82,55.04 72.82,116.56l0 18.62c0,85.8 -36.93,134.36 -111.31,147.31l-5.72 0c-43.69,0 -111.83,-29.14 -204.41,-88.23 -46.81,-45.32 -124.83,-67.99 -234.58,-67.99 -84.26,0 -166.44,25.9 -247.07,77.71 39.02,-33.19 96.23,-166.75 172.17,-400.67l6.24 -9.72 -6.24 -38.04c17.69,-55.04 32.25,-142.46 44.21,-263.07l0 -174.84c-10.92,0 -21.85,-163.5 -31.73,-488.9 -27.57,-47.75 -54.09,-109.27 -79.58,-185.36 -7.8,0 -14.04,-29.14 -18.2,-87.42 -27.05,-44.51 -65.02,-148.12 -112.35,-313.25l-73.34 -203.98c0,-69.61 -61.89,-219.35 -186.21,-450.04 -32.24,-94.71 -71.26,-157.03 -117.03,-185.36 -28.61,0 -50.97,32.37 -67.1,97.13 0,39.66 20.29,59.9 60.86,59.9l-11.96 18.61 -6.24 0c-31.73,0 -52.54,-15.38 -62.42,-47.75l0 -77.71c0,-82.56 36.93,-137.6 111.31,-165.93l246.54 38.04c61.38,0 146.16,-52.61 254.87,-157.03l0 9.71c-82.7,124.66 -123.8,222.6 -123.8,293.83 0,270.35 39.02,518.04 117.56,742.25 36.41,190.22 71.78,322.97 105.06,398.24 19.25,117.37 35.37,175.65 48.9,175.65l11.96 0c20.29,-25.09 47.33,-96.32 81.14,-212.88 37.45,-59.09 95.19,-244.45 173.2,-557.7 14.57,0 26.53,-90.66 36.93,-272.78l0 -263.07c-13.52,-104.42 -46.29,-156.22 -99.34,-156.22l-30.17 0c0,-19.43 27.05,-29.14 80.62,-29.14l36.42 0 62.93 19.43c63.98,0 214.29,-84.99 450.96,-254.17l42.65 0zm-704.26 272.78l18.2 0 -11.96 19.43 -6.24 0 0 -19.43zm-847.31 127.9l18.21 0 24.45 38.04 0 40.47 -11.97 19.43 -6.24 0 12.48 -29.14 -24.44 -49.38 -24.45 18.62 0 -18.62 11.96 -19.42z"/>
  <path id="_4" class="fil0" d="M7669.81 3157.97l6.24 28.33c-102.47,194.26 -153.96,344.82 -153.96,452.47 -11.96,26.71 -24.45,116.56 -36.41,267.93l24.45 277.63 -6.25 9.72 6.25 12.14 -6.25 8.9 -6.24 0c-32.24,-107.65 -48.89,-210.45 -48.89,-308.39l0 -97.14 6.24 -38.04c0,-48.57 -20.28,-93.08 -60.86,-132.75 -250.18,12.95 -375.01,38.05 -375.01,76.09 -36.41,0 -54.61,16.19 -54.61,47.76l-30.69 500.23 12.48 56.66 -6.24 78.51c0,50.19 28.6,76.09 85.3,76.09 138.36,0 244.47,-76.89 318.33,-230.69l12.47 -37.23c-6.24,-27.52 -12.47,-40.47 -18.2,-40.47l-12.48 0 0 18.61 -11.96 0c4.68,-31.56 10.92,-47.75 18.2,-47.75l24.44 0c21.33,14.57 31.74,46.94 31.74,97.94 0,51.8 -28.61,131.94 -86.87,239.59 -72.82,184.55 -109.75,331.87 -109.75,440.34l0 29.14 24.45 39.66c24.45,-7.29 36.41,-37.24 36.41,-87.42l12.48 18.62 0 9.71c-5.2,58.28 -23.4,88.23 -55.13,88.23 -24.97,0 -39.53,-26.71 -42.65,-78.52 0,-59.9 8.32,-140.03 24.44,-239.59 -11.96,-56.66 -30.16,-84.99 -54.61,-84.99l-80.62 0c-77.5,12.14 -115.99,46.95 -115.99,103.61l0 59.89c0,237.17 6.24,393.39 18.21,469.48l0 106.84c19.24,242.83 35.36,365.06 48.88,365.06l-12.47 28.33c39,121.41 82.18,195.07 129.51,220.17 49.93,63.94 96.74,108.46 140.43,135.17 22.37,46.14 71.78,90.66 147.72,132.75 176.85,102.8 299.08,190.22 367.22,261.45l24.44 0c41.61,0 91.03,25.09 147.72,75.27l30.69 9.72 60.86 0c14.04,0 28.6,9.71 42.64,28.33 86.35,0 129.52,-47.76 129.52,-144.08 8.32,-3.24 16.13,-31.57 24.45,-85.8l-6.25 -38.05 24.45 -18.61c20.29,38.04 30.69,78.51 30.69,123.03 0,77.71 -28.6,166.75 -85.3,267.93l-36.93 40.47 -68.66 0c-43.69,0 -117.03,-38.86 -220.54,-115.75l-251.74 -123.85c-8.85,-15.37 -96.75,-73.65 -263.71,-173.22 -69.7,-45.32 -147.2,-84.18 -231.46,-115.74 0,-36.43 -83.74,-71.23 -251.23,-104.42l-6.24 0 -251.22 123.03 -24.45 9.72 -6.24 -9.72 0 -9.71c134.19,-217.74 201.29,-386.91 201.29,-506.71l36.41 -164.31 -6.24 -8.91 0 -9.71 6.24 -9.71 -6.24 -68.81 0 -153.79 6.24 -9.71 -6.24 -9.72 0 -8.9 -11.96 -403.1 6.24 0 -6.24 -9.71 0 -56.66 6.24 -50.19 -6.24 -38.04 11.96 -211.26 -11.96 -75.28 0 -154.6 -12.49 -135.18 6.24 -56.66c-20.28,-71.23 -40.56,-170.79 -60.85,-298.68 -7.28,-1.62 -19.25,-29.95 -36.41,-85.8 -46.81,-31.57 -85.3,-46.95 -115.99,-46.95 -69.18,15.38 -103.51,70.42 -103.51,163.51 0,23.47 20.28,42.9 60.86,56.66 16.12,-6.48 24.44,-25.1 24.44,-56.66l0 -30.76 -18.2 -38.05 -30.69 28.33 -6.24 0 0 -9.71 24.45 -38.04 12.48 0 30.17 47.75 0 68.81c-13.01,38.04 -35.37,56.66 -67.1,56.66 -37.45,0 -56.18,-54.24 -56.18,-163.51 19.25,-114.94 66.58,-173.22 141.48,-173.22l231.98 0c208.05,0 383.86,-34.8 526.9,-104.42 172.68,-143.27 265.27,-239.59 277.75,-288.97l30.17 -18.61zm-447.84 1690.1l6.24 0 23.93 38.05 0 9.71 -18.2 -18.62 -18.21 0 0 37.24 -11.96 -18.62 0 -18.62 18.2 -29.14z"/>
  <path id="_5" class="fil0" d="M8788.62 3038.98l36.41 0c56.69,0 91.54,56.66 103.5,170.79l0 9.71c0,161.08 -36.4,310.02 -109.74,446l6.24 8.91 0 9.71c-68.14,137.61 -122.75,270.35 -164.36,398.24 -105.59,183.75 -166.97,351.3 -183.09,502.66l0 19.43c0,131.13 18.2,209.65 55.13,237.17l18.21 0 24.44 -19.43 0 -46.95 11.97 -19.42 18.2 28.33 0 9.71c0,69.61 -18.2,104.42 -54.61,104.42l-24.45 0c-43.69,0 -70.22,-44.52 -79.06,-132.75l0 -94.71c0,-148.93 32.25,-297.06 97.27,-445.99l18.2 -76.09 0 -28.33c-14.04,-88.23 -60.86,-132.75 -139.91,-132.75l-12.49 0c-114.43,20.24 -266.83,169.17 -457.2,446 -75.94,142.46 -114.43,246.07 -115.47,312.44l-6.24 9.72c-48.89,205.59 -73.34,382.86 -73.34,530.99l0 19.42 -11.96 76.09 0 8.9c13,160.27 39.53,280.07 79.06,361.01 42.65,146.51 105.59,276.02 189.33,388.53 0,21.05 32.25,67.99 97.27,142.46 4.15,13.76 60.85,71.23 170.6,170.79 0,13.76 42.65,51.81 127.95,113.32l91.54 101.99 -6.24 9.72 463.44 237.16c120.68,63.14 281.39,110.89 481.65,142.46 28.09,41.28 42.65,79.33 42.65,114.13l0 66.38c-18.2,113.32 -55.13,169.98 -109.75,169.98l-18.2 0c-16.65,-8.9 -24.45,-31.57 -24.45,-66.37l5.72 -8.91 12.49 0 -6.25 8.91 0 19.42 18.21 28.33c48.89,-33.18 73.34,-83.37 73.34,-151.36 0,-66.38 -103.51,-120.61 -311.04,-161.89 -261.11,-88.23 -531.06,-227.45 -810.37,-416.86 -97.79,-61.52 -189.34,-133.56 -274.63,-216.12 -149.28,-161.08 -224.18,-249.31 -225.22,-265.49 -18.21,-36.43 -40.58,-68 -67.1,-94.71 -113.91,-297.06 -170.6,-496.18 -170.6,-597.36 -32.78,-142.46 -48.9,-263.07 -48.9,-361.01 0,-149.75 32.77,-348.87 97.78,-597.37 24.98,-52.61 47.34,-121.41 66.58,-208.83 46.82,-86.61 97.79,-165.94 152.41,-237.17 178.92,-208.83 319.36,-313.25 420.78,-313.25 37.45,-25.09 120.67,-46.94 249.67,-66.37 154.48,-86.61 252.27,-174.84 292.83,-265.5 44.74,-113.32 67.1,-195.88 67.1,-246.07 -17.16,-69.61 -33.81,-104.41 -48.89,-104.41l-11.96 0c-9.36,0 -17.69,21.85 -24.45,66.37l-12.48 0 -18.21 -28.33c8.33,-57.47 18.21,-85.8 30.69,-85.8z"/>
  <path id="_6" class="fil0" d="M10516.51 2659.35l18.2 0c47.86,0 80.62,67.19 98.83,201.55l0 59.9c0,81.76 -47.85,185.36 -143.04,310.02 -73.34,128.7 -118.59,233.92 -135.75,318.11l-6.25 125.46c0,26.71 10.41,50.18 30.69,68.8l18.21 -9.71 0 9.71 -11.97 19.43 -18.2 0c-16.65,0 -30.69,-48.57 -42.65,-144.89l0 -116.56c0,-34.81 -8.84,-57.47 -26.01,-68.8l-36.93 0 -236.14 68.8 -36.41 0 -18.2 -18.62 -12.48 0c-11.97,17 -57.74,36.43 -136.8,56.66l-18.21 50.19c0,46.94 -6.24,72.85 -18.72,76.08l6.24 30.76c-29.13,233.93 -50.45,484.86 -62.42,753.59 -8.32,0 -11.96,9.71 -11.96,28.33l-6.24 282.49 11.96 474.33 -5.72 0c37.45,333.49 82.7,547.18 135.23,640.27 0,23.47 27.05,84.18 81.14,182.93 36.41,76.9 84.27,115.75 143.04,115.75l0 19.43 -56.17 21.04 -61.37 0c-194.01,-64.75 -309.49,-97.13 -347.46,-97.13 -119.63,25.09 -204.41,50.18 -254.34,76.09l-11.97 0 -12.48 -19.43c156.56,-165.94 235.1,-327.01 235.1,-484.04l5.72 -194.27 -5.72 -357.77 -12.48 -56.66c16.13,-84.18 24.45,-223.41 24.45,-417.67l-6.25 -153.79 14.05 -19.43 -7.8 -301.11 7.8 -9.71 0 -8.91 -19.77 -195.07 11.97 -18.62 0 -9.71 -11.97 -18.62 5.72 -40.47c-11.96,-232.31 -32.24,-348.87 -60.85,-348.87l-37.97 -9.71 -86.87 0c-149.27,0 -258.51,35.61 -327.68,106.84 -97.78,64.76 -163.84,162.7 -198.17,292.21l-13.52 75.28c5.71,33.19 12.47,50.18 19.76,50.18l24.45 0 11.96 -18.61 0 -31.57 -6.25 -8.9 0 -9.72 6.25 -9.71 6.24 0 18.2 28.33 0 59.9c-4.15,18.61 -16.12,28.33 -36.4,28.33l-18.73 0c-33.29,0 -54.09,-35.62 -62.41,-106.85l0 -38.04c0,-44.52 56.17,-180.51 168,-407.96 66.05,-184.55 98.82,-307.58 98.82,-367.48l12.49 -173.22 -36.93 -146.51 6.24 0c32.25,46.95 48.89,102.8 48.89,165.94l0 38.04 -18.2 250.92c14.04,84.19 39.01,125.47 74.38,125.47l341.21 -8.91 48.89 -19.42 86.86 0c120.15,0 345.37,-54.24 676.7,-163.51l98.82 -68.8c102.99,-140.84 153.96,-217.74 153.96,-232.31l12.49 -97.13c-6.24,-102.8 -28.61,-153.8 -67.1,-153.8 -31.73,0 -50.45,12.15 -56.7,37.24l0 19.43 12.49 30.75 -12.49 0 -11.96 -21.04 0 -47.76c14.04,-31.57 36.93,-47.76 68.66,-47.76z"/>
  <path id="_7" class="fil0" d="M10982.55 3306.9l158.64 0c111.83,0 190.89,31.57 237.7,94.71 11.45,0 27.57,22.66 48.9,66.37 78.02,47.76 135.23,123.85 170.6,228.26l103.51 151.37c0,39.66 24.44,112.51 73.34,218.55 40.57,71.23 60.85,200.74 60.85,388.53l6.25 85.8 0 378.81c-38.49,148.94 -71.26,256.59 -97.79,322.97 -57.73,132.74 -122.75,303.54 -195.05,512.37 -7.81,0 -11.96,12.14 -11.96,37.23 -19.25,0 -74.38,92.28 -164.89,275.21 -30.16,51 -60.85,76.09 -91.02,76.09 -63.98,0 -123.27,-34.81 -176.84,-104.42 -52.02,-36.42 -117.04,-93.08 -195.06,-170.79 -12.48,0 -58.77,-38.04 -140.43,-113.32 -88.42,-62.33 -147.2,-150.55 -176.85,-266.3l-109.75 -360.2 -5.72 0 5.72 -46.95c-17.16,-51 -29.13,-177.27 -36.41,-379.63 -11.96,0 -18.2,-57.47 -18.2,-170.79l18.2 -19.42 -6.24 -94.71 0 -161.08c0,-18.61 12.48,-59.89 36.93,-123.03 0,-33.19 34.33,-147.32 103.5,-341.58l67.1 -161.08c0,-30.76 46.82,-99.56 139.92,-208.84 32.77,0 79.58,-34.8 140.44,-104.41l54.61 -9.72zm-365.65 1223.87l0 142.46c0,207.22 20.28,339.97 60.85,398.25 0,23.47 32.77,131.12 97.79,322.15 37.45,26.71 108.71,112.51 213.25,256.59 80.11,61.52 139.4,124.66 176.85,189.41l79.06 28.33 109.75 -113.32c50.97,-64.75 101.95,-178.88 152.4,-341.58 89.46,-291.4 134.2,-547.18 134.2,-768.97 -16.13,-162.69 -42.66,-292.2 -79.07,-388.53 -9.36,-86.61 -54.09,-210.45 -134.19,-369.91l-115.99 -142.46 -182.57 -113.32 -48.9 0c-26.52,0 -87.37,53.42 -183.08,161.08 -67.1,91.46 -123.79,208.83 -170.6,350.48l-109.75 389.34z"/>
  <path id="_8" class="fil0" d="M12753.61 3204.92l0 25.9c-81.66,152.17 -122.23,294.63 -122.23,427.38 -15.08,56.66 -22.88,128.7 -22.88,215.31l0 45.33 -10.41 18.62 -12.48 -28.33 0 -54.24c0,-159.46 -41.09,-271.16 -123.28,-334.29l-134.19 -71.24 -27.57 0c-17.16,0 -54.09,26.72 -110.79,80.14 -32.76,9.71 -66.57,52.61 -102.46,128.7l-27.57 80.13 0 45.33c0,69.61 61.89,184.55 184.65,344.01l-10.41 16.19c22.89,8.1 73.34,72.04 150.85,192.65 67.62,156.22 120.15,234.73 156.56,234.73 15.6,18.62 50.97,93.9 106.62,225.03 30.69,71.23 54.61,188.6 71.78,352.91 26.53,74.47 39.53,125.46 39.53,152.18 -5.2,64.75 -25.48,134.36 -60.85,208.83 -49.94,142.46 -106.11,265.5 -169.05,369.91 -146.16,169.18 -230.42,253.36 -251.75,253.36l-49.93 9.71c-93.62,-39.66 -185.16,-127.08 -274.62,-263.07 -33.3,-25.09 -49.94,-89.03 -49.94,-190.21 -10.4,0 -19.25,-41.29 -27.57,-125.47 0,-151.36 24.45,-250.92 73.34,-298.68 0,-56.66 31.21,-101.99 94.15,-135.18 0,-11.33 20.8,-22.66 62.41,-35.61l17.17 0c99.34,55.04 151.36,88.23 154.99,99.56 11.45,21.86 17.17,42.9 17.17,61.52l0 137.6c-12.48,114.13 -38.49,170.79 -78.02,170.79 -55.65,-10.52 -83.74,-52.61 -83.74,-125.46l0 -18.62c27.57,-67.18 47.85,-102.8 60.86,-109.27l45.77 0 0 -9.71c-19.25,-46.14 -56.7,-84.19 -112.87,-116.56l-4.16 -8.91 -6.24 0c-55.14,45.33 -105.07,139.23 -150.85,279.26l0 9.71c0,223.41 10.93,334.3 33.3,334.3 65.01,94.7 130.03,152.98 195.05,173.22 78.54,-13.76 130.55,-42.09 157.08,-82.56 122.75,-190.22 201.29,-355.35 234.58,-496.19l6.24 -54.23 0 -19.43c-39.53,-270.35 -84.26,-462.99 -134.2,-577.93 -27.56,-25.91 -53.57,-82.57 -79.05,-170.8 -58.26,-99.56 -123.28,-172.41 -195.06,-218.54 -164.88,-134.37 -247.06,-236.36 -247.06,-305.97l-16.65 -191.84c3.13,-52.61 40.58,-151.36 112.87,-296.25 39.54,-36.43 97.27,-106.04 173.73,-208.84l54.61 -35.61c53.06,0 149.8,35.61 291.28,106.84 61.89,0 123.27,-68.8 184.13,-206.4l17.16 -9.71z"/>
  <path id="_9" class="fil0" d="M14173.58 3273.72c191.93,47.75 330.28,97.94 414.55,152.17 239.78,152.98 404.14,390.15 493.61,710.69 28.61,127.08 42.65,212.07 42.65,256.59l0 84.99 6.24 246.88 -36.41 284.92c-12.48,0 -22.37,53.42 -30.69,161.08 -32.25,64.75 -48.89,131.13 -48.89,199.12l-85.31 199.12c-71.77,117.37 -151.35,230.69 -237.7,341.58 -58.77,99.56 -113.39,172.41 -164.36,217.74 -9.36,25.9 -159.68,142.46 -450.95,351.3 -188.29,131.12 -299.6,196.69 -335.49,196.69l-30.17 0c-106.11,-48.57 -158.64,-127.08 -158.64,-234.74 5.2,-126.27 29.64,-189.41 72.81,-189.41l36.93 -38.04 18.21 0 91.55 114.13 0 37.24c0,34.8 -12.49,63.94 -36.93,85.8l-42.66 0c-40.56,0 -62.93,-38.05 -67.1,-114.14l24.45 -28.33 18.73 0 11.96 19.43 -11.96 0 -6.25 -9.71 -6.24 0 -11.96 56.66c16.13,31.57 34.33,47.76 54.62,47.76 28.6,0 42.65,-25.91 42.65,-76.09 -13.01,-56.66 -33.29,-85.8 -60.86,-85.8 -60.86,9.71 -91.55,57.47 -91.55,142.46l-6.24 9.71 0 9.72c0,96.32 50.98,152.98 152.41,170.79 140.43,-54.24 239.78,-110.9 299.07,-170.79 18.21,-34.81 89.47,-94.71 213.26,-180.51 30.17,-34.8 46.81,-63.14 48.89,-84.99 0,-101.18 -106.11,-202.36 -317.28,-303.54 -69.18,0 -103.51,-9.71 -103.51,-29.14l6.25 -8.9 18.2 0c121.71,0 182.57,-66.38 182.57,-199.12l12.48 -114.13 -42.65 -1071.7 -30.69 -502.66c0,-95.51 -11.96,-196.69 -36.41,-303.54l6.24 -38.04c-28.61,-51 -55.13,-76.09 -79.58,-76.09 -78.02,0 -147.2,91.47 -207.01,275.21l-6.24 38.04 0 28.33c4.16,18.62 16.12,28.33 36.41,28.33l24.44 -9.71 0 -8.9c0,-31.57 -5.72,-47.76 -18.2,-47.76l0 -18.62 6.24 0c17.16,7.29 29.65,23.48 36.41,46.95l0 38.04c-6.24,25.1 -20.28,38.05 -42.65,38.05l-24.45 0c-40.57,-9.71 -60.86,-41.28 -60.86,-94.71l0 -28.33c0,-27.52 48.9,-134.36 146.16,-322.96l48.9 -113.32c0,-51 30.69,-76.09 91.54,-76.09l231.46 -9.71zm-24.45 930.04l6.24 227.45c8.33,0 11.97,8.91 11.97,28.33l-5.73 94.71 5.73 38.04 -5.73 47.76 5.73 46.94 -5.73 132.75 0 38.04 18.21 180.51 0 189.41c33.29,588.46 98.31,882.28 195.05,882.28l11.97 0c84.26,-67.99 168,-175.64 250.18,-322.15 88.42,-135.99 135.23,-231.5 139.92,-284.92 77.49,-218.55 115.99,-356.97 115.99,-417.67 32.77,-86.61 48.89,-156.22 48.89,-208.03l0 -284.92c0,-210.45 -16.12,-361.82 -48.89,-455.71 0,-73.66 -50.97,-184.55 -152.4,-331.87 -140.96,-176.46 -269.43,-265.5 -383.86,-265.5l-152.4 -38.04 -6.25 0c-24.44,0 -36.41,123.84 -36.41,369.91l-12.48 332.68z"/>
  <path id="_10" class="fil0" d="M16238.51 3157.97l6.25 28.33c-102.47,194.26 -153.96,344.82 -153.96,452.47 -11.96,26.71 -24.45,116.56 -36.41,267.93l24.45 277.63 -6.25 9.72 6.25 12.14 -6.25 8.9 -6.24 0c-32.24,-107.65 -48.89,-210.45 -48.89,-308.39l0 -97.14 6.24 -38.04c0,-48.57 -20.28,-93.08 -60.86,-132.75 -250.18,12.95 -375.01,38.05 -375.01,76.09 -36.41,0 -54.62,16.19 -54.62,47.76l-30.69 500.23 12.49 56.66 -6.24 78.51c0,50.19 28.6,76.09 85.3,76.09 138.35,0 244.46,-76.89 318.32,-230.69l12.48 -37.23c-6.24,-27.52 -12.48,-40.47 -18.2,-40.47l-12.48 0 0 18.61 -11.97 0c4.69,-31.56 10.93,-47.75 18.21,-47.75l24.44 0c21.33,14.57 31.73,46.94 31.73,97.94 0,51.8 -28.6,131.94 -86.86,239.59 -72.82,184.55 -109.75,331.87 -109.75,440.34l0 29.14 24.45 39.66c24.44,-7.29 36.41,-37.24 36.41,-87.42l12.48 18.62 0 9.71c-5.2,58.28 -23.4,88.23 -55.14,88.23 -24.96,0 -39.52,-26.71 -42.64,-78.52 0,-59.9 8.32,-140.03 24.44,-239.59 -11.96,-56.66 -30.16,-84.99 -54.61,-84.99l-80.62 0c-77.51,12.14 -115.99,46.95 -115.99,103.61l0 59.89c0,237.17 6.24,393.39 18.2,469.48l0 106.84c19.24,242.83 35.37,365.06 48.89,365.06l-12.48 28.33c39.01,121.41 82.18,195.07 129.52,220.17 49.93,63.94 96.74,108.46 140.43,135.17 22.37,46.14 71.78,90.66 147.72,132.75 176.84,102.8 299.08,190.22 367.22,261.45l24.44 0c41.61,0 91.02,25.09 147.72,75.27l30.69 9.72 60.85 0c14.04,0 28.61,9.71 42.65,28.33 86.35,0 129.52,-47.76 129.52,-144.08 8.32,-3.24 16.13,-31.57 24.45,-85.8l-6.25 -38.05 24.45 -18.61c20.29,38.04 30.68,78.51 30.68,123.03 0,77.71 -28.6,166.75 -85.29,267.93l-36.93 40.47 -68.66 0c-43.69,0 -117.03,-38.86 -220.54,-115.75l-251.75 -123.85c-8.84,-15.37 -96.74,-73.65 -263.7,-173.22 -69.7,-45.32 -147.2,-84.18 -231.46,-115.74 0,-36.43 -83.75,-71.23 -251.23,-104.42l-6.24 0 -251.23 123.03 -24.44 9.72 -6.25 -9.72 0 -9.71c134.2,-217.74 201.3,-386.91 201.3,-506.71l36.41 -164.31 -6.25 -8.91 0 -9.71 6.25 -9.71 -6.25 -68.81 0 -153.79 6.25 -9.71 -6.25 -9.72 0 -8.9 -11.95 -403.1 6.24 0 -6.24 -9.71 0 -56.66 6.24 -50.19 -6.24 -38.04 11.95 -211.26 -11.95 -75.28 0 -154.6 -12.49 -135.18 6.24 -56.66c-20.29,-71.23 -40.57,-170.79 -60.85,-298.68 -7.28,-1.62 -19.25,-29.95 -36.41,-85.8 -46.81,-31.57 -85.31,-46.95 -116,-46.95 -69.17,15.38 -103.5,70.42 -103.5,163.51 0,23.47 20.28,42.9 60.86,56.66 16.12,-6.48 24.44,-25.1 24.44,-56.66l0 -30.76 -18.2 -38.05 -30.69 28.33 -6.24 0 0 -9.71 24.45 -38.04 12.48 0 30.16 47.75 0 68.81c-13,38.04 -35.36,56.66 -67.09,56.66 -37.45,0 -56.18,-54.24 -56.18,-163.51 19.25,-114.94 66.58,-173.22 141.48,-173.22l231.98 0c208.05,0 383.86,-34.8 526.9,-104.42 172.68,-143.27 265.26,-239.59 277.75,-288.97l30.16 -18.61zm-447.83 1690.1l6.24 0 23.93 38.05 0 9.71 -18.2 -18.62 -18.21 0 0 37.24 -11.96 -18.62 0 -18.62 18.2 -29.14z"/>
  <path id="_11" class="fil0" d="M17383.33 3344.95c29.13,0 124.84,69.61 286.08,208.83l67.09 9.72 30.69 0c23.41,0 68.14,-32.38 134.2,-95.52l30.17 -8.9 6.24 8.9 0 19.43c-25.49,42.9 -52.02,102.8 -79.06,179.69l11.96 47.76 -6.24 9.71 18.72 179.7 -12.48 19.42 0 9.72c23.41,46.95 37.45,101.18 42.65,161.08 11.45,0 31.73,76.08 60.85,227.45 44.74,109.27 67.1,191.02 67.1,246.88 12.49,26.71 18.21,99.56 18.21,217.73l0 28.33c28.61,0 65.02,-28.33 109.75,-84.99l0 -18.61 -5.72 -9.72 0 -9.71 5.72 -9.71 6.24 0 18.21 29.14 0 56.66c0,74.47 -30.17,131.13 -91.55,170.79 0,33.19 10.4,58.28 30.69,76.09l-6.24 46.94c48.89,191.03 83.22,358.58 104.03,502.66 16.12,39.67 28.08,93.09 36.41,161.08l-6.25 0c90.51,341.58 179.97,543.94 268.39,607.08l109.75 85.8 0 18.62c-91.55,-40.48 -234.06,-129.51 -427.03,-265.5l-60.86 0c-81.14,0 -182.56,41.28 -304.8,123.84 -16.12,-9.71 -24.44,-19.42 -24.44,-29.14 131.07,-119.79 200.25,-227.45 207.53,-322.15 10.92,0 21.33,-145.7 30.17,-436.29l-18.21 -170.79c-7.8,0 -18.2,-56.66 -30.17,-170.79l-6.24 -9.71 6.24 -46.95c-55.13,-46.14 -89.46,-80.94 -104.02,-104.42 -72.82,21.86 -109.75,43.71 -109.75,66.38l-164.36 18.61 -48.89 0c-21.33,0 -39.53,9.72 -54.62,28.33l-30.69 0c0,19.43 -7.8,38.05 -24.44,57.47l6.24 8.91 0 9.71c-11.97,29.95 -26.53,159.46 -42.65,389.34l6.24 28.33 -6.24 151.36 0 76.09 -6.24 56.66c28.6,107.66 57.21,183.74 85.3,228.26l79.58 132.75 -12.48 18.62c-172.69,-107.66 -339.13,-161.08 -499.85,-161.08l-11.97 0c-46.81,0 -115.99,12.95 -207.53,38.04l-5.72 -9.71 0 -18.62c155.52,-79.32 261.11,-205.59 316.76,-379.62 60.85,-190.22 105.58,-354.54 134.19,-493.76 8.32,-2.43 16.13,-18.62 24.45,-46.95l-6.24 -28.33 -6.24 0 -243.43 170.79c-36.93,36.43 -55.13,73.66 -55.13,113.33l0 28.33c16.13,44.51 40.57,66.37 73.34,66.37 40.57,-13.76 60.86,-45.33 60.86,-94.7 -5.21,-28.33 -21.33,-50.19 -48.9,-66.38 -17.16,6.48 -31.2,22.67 -42.65,47.76 0,28.33 12.48,46.95 36.93,56.66l18.21 -46.95 -18.21 -19.42 -18.72 19.42 0 -9.71 18.72 -28.33 5.72 0 24.45 38.04 0 37.24 -18.21 29.14 -11.96 0c-36.93,-12.96 -55.13,-29.14 -55.13,-47.76l0 -47.76c0,-43.71 20.28,-66.37 60.85,-66.37 28.61,0 55.14,31.57 79.59,95.51l0 37.24c0,62.32 -30.69,100.37 -91.55,114.13l-42.65 0c-57.22,-18.62 -85.31,-56.66 -85.31,-114.13l0 -8.91c0,-118.99 34.34,-200.74 103.51,-246.88l316.77 -246.87 0 -8.91 -5.73 -9.71 42.66 -123.04c0,-71.23 16.12,-134.36 48.37,-190.21l0 -132.75c0,-31.57 14.56,-59.9 42.65,-84.99l42.65 -246.88c16.65,-71.23 30.69,-182.12 42.65,-331.87 -40.57,-182.12 -76.98,-293.02 -109.22,-331.87 0,-12.95 -34.86,-60.71 -104.03,-142.46l-11.97 -28.33 6.24 -9.71zm133.68 1565.45l36.93 18.62c202.85,-33.19 304.8,-55.05 304.8,-66.38 1.04,-12.95 15.08,-21.85 42.65,-28.33l0 -19.43 -18.21 0 0 -28.33 5.73 -38.04 -109.75 -569.03 -30.17 -94.71 0 -56.66 -12.49 0c-5.71,0 -22.36,53.43 -48.37,161.08 -36.93,213.69 -67.09,333.49 -91.54,360.2 -36.93,114.13 -62.94,233.93 -79.58,361.01z"/>
  <path id="_12" class="fil0" d="M19086.78 2507.99c44.73,39.66 112.87,131.94 204.41,277.64 135.24,141.65 270.99,260.64 408.31,355.34 80.1,50.99 128.99,89.85 146.16,118.99l-11.96 18.61 -19.77 0 -70.22 -9.71c-110.79,28.33 -165.92,81.75 -165.92,159.46 -50.97,119.8 -76.46,454.9 -76.46,1005.32l0 127.89 -11.96 89.85c3.63,140.84 11.96,232.31 24.44,275.21l13.53 998.84 0 39.66 11.95 78.52 0 178.08c0,186.17 30.17,308.39 89.99,365.05l32.25 18.62c23.41,-10.52 40.05,-37.24 49.93,-77.71 -5.72,-46.14 -14.56,-68.8 -25.48,-68.8l-6.25 0 -12.48 18.62 0 21.04 12.48 29.14 -12.48 0 -11.96 -19.42 0 -9.72c2.08,-38.85 8.32,-59.09 18.2,-59.09l26.01 0c25.48,22.67 37.97,51.81 37.97,88.23 -10.92,91.47 -36.41,137.61 -75.94,137.61l-6.24 0c-75.94,0 -159.68,-49.38 -249.67,-147.32 -42.13,-14.57 -62.93,-27.52 -62.93,-40.47 46.81,-53.43 70.21,-102.8 70.21,-146.51 -13,-115.75 -49.93,-284.11 -109.74,-505.9l-88.42 -383.67c0,-33.19 -14.57,-106.04 -44.22,-218.55 0,-25.09 -36.41,-143.27 -109.75,-355.34 -51.49,-242.02 -85.3,-363.44 -100.38,-365.06l-7.8 0c-27.05,0 -58.78,213.69 -94.15,642.69l-7.8 8.91 0 30.76 32.24 178.07 0 127.89 51.5 405.53c26.53,77.71 66.58,149.75 120.67,216.12 4.16,20.24 55.14,63.14 153.96,127.89l0 9.72 -14.04 21.04c-78.02,0 -203.37,-55.85 -376.06,-168.36l-108.19 -8.91 -24.44 0c-22.37,0 -116,59.09 -280.36,177.27l-32.24 0 0 -9.71c38.48,-48.57 79.05,-114.94 120.67,-199.12 48.37,-12.15 106.1,-143.27 172.16,-393.39l51.49 -267.92 0 -97.14 12.49 -30.75 0 -59.09 11.96 -157.03 0 -30.76 6.24 -286.54 -6.24 -297.07 0 -97.13 -6.24 -68.8 12.48 -21.05c-25.48,-180.5 -53.05,-338.34 -82.18,-474.33 -58.26,-195.88 -117.55,-293.82 -178.41,-293.82l-94.66 0c-76.98,0 -115.47,32.38 -115.47,97.13 8.84,39.66 26.01,59.09 51.49,59.09 17.17,-9.71 26.01,-18.62 26.01,-28.33l0 -50.19 -37.97 -8.9 11.96 -21.85c33.81,0 50.46,27.52 50.46,80.94 -6.24,46.14 -20.81,68.8 -44.21,68.8 -59.82,-11.33 -89.99,-50.99 -89.99,-118.99l0 -8.9c5.2,-79.32 29.13,-118.99 71.78,-118.99l56.18 0c72.29,0 171.64,-81.75 298.55,-246.07 43.7,-65.56 86.34,-111.7 127.95,-140.03 3.13,-14.57 35.38,-43.71 96.23,-88.23 36.41,-40.47 74.9,-67.18 114.43,-77.7l11.96 0 14.05 18.61c-119.11,142.47 -178.41,260.64 -178.41,356.16l0 8.9c0,74.47 35.89,262.26 108.19,562.56 14.04,5.67 24.97,59.09 31.73,158.65 12.48,0 18.72,42.9 18.72,127.89 34.33,94.7 51.49,170.79 51.49,227.45 71.27,135.99 109.24,261.45 114.43,374.77 10.93,3.24 47.34,127.89 108.19,374.77l6.25 0c0,-18.62 8.32,-38.85 25.48,-59.09l26.01 -246.88 0 -97.13 32.25 -367.48c0,-303.54 -10.92,-582.8 -32.25,-836.96l-19.77 -30.76 0 -50.19 6.24 -9.71 0 -8.9c-12.48,0 -20.28,-56.66 -24.44,-168.37 -16.13,0 -29.13,-65.56 -37.97,-196.69 -24.45,-117.37 -80.1,-271.97 -166.45,-465.42l-25.48 -39.67 5.72 -9.71z"/>
  <path id="_13" class="fil0" d="M20601.93 3107.78c82.18,12.95 123.28,34.81 123.28,66.38l0 30.76c0,39.66 -9.37,64.75 -27.58,76.08l-34.85 0 -14.04 -21.04 0 -21.86 14.04 -21.04 0 8.9 -6.23 34 33.8 0 21.33 -42.9c-8.32,-42.9 -29.13,-63.95 -62.94,-63.95 -87.38,10.52 -183.6,72.04 -289.19,182.12 -130.04,99.57 -196.62,419.29 -199.73,958.38l7.8 63.94c-6.24,36.43 -13.53,54.24 -21.33,54.24l7.28 76.08 0 42.9 -7.28 76.09c6.76,0 18.73,25.09 34.85,75.28l0 21.85c0,151.37 18.2,370.72 55.13,656.45l-20.28 33.19 0 21.86c13.52,0 33.81,132.74 61.38,398.24 18.2,97.94 64.49,177.27 138.35,237.16l47.34 76.09 0 21.05 -13.53 21.04c-42.65,-21.85 -115.99,-40.47 -219.5,-54.23 -123.27,0 -288.15,50.18 -495.16,151.36l-21.33 0 -21.33 -33.18 150.84 -118.18c59.82,-47.76 103.51,-123.03 131.08,-225.02l0 -24.29 -6.24 -73.66c11.96,0 26,-53.42 41.09,-161.07 13,-17 19.76,-42.9 19.76,-76.09l0 -118.18 -13.52 -33.18 0 -33.19c23.41,-156.22 34.85,-278.45 34.85,-365.06l0 -42.9 -21.33 -151.36 0 -128.7 15.08 -66.38 6.25 -602.22 0 -140.03c-8.84,-225.83 -30.17,-344.01 -62.42,-355.34 -63.98,-51 -114.43,-76.09 -150.84,-76.09l-21.32 0c-31.73,29.95 -47.34,73.66 -47.34,130.32 0,11.33 15.61,29.14 47.34,55.04l41.09 -24.28 0 12.14c-4.16,21.85 -17.68,33.19 -41.09,33.19 -29.65,0 -52.01,-25.1 -67.1,-76.09l0 -42.9c0,-70.42 24.97,-125.46 74.9,-163.51l33.29 12.14 97.26 0 268.39 -106.84c165.4,-109.28 292.32,-163.51 379.7,-163.51zm-758.88 431.43l7.28 0 21.33 33.19 0 9.71 -15.08 21.05 -13.53 -63.95z"/>
  <path id="_14" class="fil0" d="M21131.95 2913.52l7.8 11.33c-49.93,160.27 -74.9,287.35 -74.9,382.05 5.2,64.76 24.97,166.75 59.82,305.97l-7.81 12.14c0,106.85 36.93,308.4 111.31,602.22 7.8,161.08 37.97,308.4 89.99,441.15 2.08,31.56 28.6,113.32 80.61,246.07l7.81 0c15.08,-106.85 42.65,-213.7 82.18,-319.73l118.59 -305.97c40.05,-267.11 104.02,-533.42 192.45,-798.91 15.08,0 22.36,-57.47 22.36,-170.79l0 -73.66c0,-41.28 -19.76,-93.9 -59.29,-158.65l0 -38.05 7.8 0c61.9,86.61 125.87,156.23 191.93,208.84 76.46,81.75 145.64,179.69 208.57,293.82l-15.08 25.91 -7.8 0 -59.3 -61.52 -30.16 0c-24.45,0 -46.29,20.23 -65.54,61.52l0 23.47 21.32 379.63c-8.32,0 -15.6,225.02 -21.32,675.88 0,71.23 11.96,174.02 36.41,308.39l0 305.97c15.08,29.95 22.88,58.28 22.88,84.99l-45.77 111.7 0 23.47c10.41,17.81 17.69,71.23 22.89,161.89 15.08,0 37.45,118.18 67.09,355.34 72.31,144.08 118.6,217.74 139.92,220.98 31.73,64.76 138.36,186.98 320.41,367.48 18.2,0 45.25,32.38 80.62,97.14l444.71 355.34c323.01,213.69 545.63,320.54 667.85,320.54l59.3 -12.14 22.88 12.14c79.07,-55.85 143.04,-133.56 191.94,-234.74 29.13,-87.42 44.21,-157.03 44.21,-208.83l0 -35.62c-37.45,-188.6 -84.26,-282.49 -140.44,-282.49l-36.41 0c-82.18,0 -141.48,73.66 -178.41,220.97 0,99.56 42.14,176.46 126.4,232.31 88.42,0 132.63,-49.37 132.63,-147.32l0 -46.94c0,-80.95 -36.93,-131.13 -111.31,-149.75l-28.61 0 -44.21 111.7c17.17,97.94 34.34,146.51 51.5,146.51l21.32 0c44.74,0 67.1,-28.33 67.1,-84.99 -6.76,-82.56 -29.13,-123.03 -67.1,-123.03l-28.61 61.51c0,64.76 19.77,97.14 59.3,97.14 0,16.99 -7.8,25.9 -22.88,25.9 -32.25,-21.86 -52.54,-46.95 -59.3,-73.66l0 -25.9c0,-64.76 27.57,-105.23 82.18,-120.61 43.69,58.28 65.54,127.89 65.54,208.03l-96.23 97.94c-48.37,-42.9 -83.22,-96.33 -103.5,-159.46l0 -38.04c0,-23.48 17.16,-80.14 52.01,-170.8 129,0 193.49,57.47 193.49,170.8l7.8 147.31 0 38.05c-20.8,46.94 -70.21,88.22 -149.8,123.03l-15.08 0c-58.78,0 -117.55,-118.99 -176.85,-357.77 105.59,-190.22 189.86,-291.4 251.75,-303.54 113.39,121.42 170.6,222.6 170.6,303.54 14.05,0 33.82,65.56 59.3,196.69 -9.36,77.71 -83.22,225.03 -222.62,443.57 -51.49,41.29 -115.99,61.52 -193.49,61.52l-124.83 0c-132.11,0 -374.5,-139.22 -726.63,-417.67l-141.99 -110.89c-19.25,-33.19 -48.9,-50.19 -88.43,-50.19 -371.89,-391.76 -564.87,-587.65 -578.91,-587.65 -127.95,-57.47 -231.46,-85.8 -311.04,-85.8l-201.3 61.52 0 -11.33c0,-12.95 42.66,-66.38 126.92,-161.89 98.31,-217.74 147.72,-369.1 147.72,-452.47l15.08 -220.98 -7.8 -516.42 15.6 -159.46 -7.8 -97.13 7.8 -61.52c-5.2,-169.17 -15.08,-292.21 -29.13,-369.91l0 -170.79 -7.8 0c0,50.99 -39.52,210.45 -118.59,479.18 0,47.76 -14.56,141.65 -44.21,282.5 -29.65,187.79 -54.09,281.68 -74.9,281.68 0,24.28 -11.96,56.66 -36.41,97.13 -38.49,208.84 -83.22,356.96 -134.19,443.57 -36.41,114.13 -58.78,170.79 -67.1,170.79 -23.41,0 -47.33,-159.45 -72.81,-479.18 -39.54,-398.24 -94.15,-705.02 -163.33,-919.52 -15.08,0 -22.88,-32.38 -22.88,-97.13l-82.19 -282.5 -7.28 -87.42c-9.36,0 -14.04,12.14 -14.04,37.24l-7.8 159.46 15.6 293.82c-4.16,139.23 -11.97,208.84 -22.88,208.84l7.28 184.55 0 12.14 -22.37 355.34c0,296.26 56.69,598.99 170.61,908.19l51.49 26.71 0 23.48 -51.49 0 -326.13 -61.52 -36.93 0c-63.98,0 -140.44,24.28 -229.9,73.66l-7.8 0c163.84,-212.08 245.5,-494.57 245.5,-846.67 0,-183.75 17.16,-408.77 52.02,-675.88l13.52 -270.36 -6.24 -208.83 0 -35.62 -15.09 -73.65 7.81 -49.38 -7.81 -170.79 0 -26.71 -15.08 -34.81 0 -26.71 15.08 -35.61 0 -37.24c0,-67.99 -14.56,-113.32 -44.21,-135.17 -128.99,12.14 -193.49,45.32 -193.49,99.56l0 11.33c0,66.37 17.16,111.7 52.02,135.17 23.92,-10.52 36.41,-39.66 36.41,-84.99l-13.53 -25.9 -15.6 0c-9.89,0 -15.09,12.14 -15.09,37.24l-13.52 0 0 -37.24c3.64,-24.28 18.72,-35.61 44.21,-35.61l28.61 49.37 0 23.48c0,64.75 -24.45,97.13 -72.82,97.13 -44.73,-31.57 -67.1,-84.18 -67.1,-158.65l0 -11.33c0,-109.28 56.7,-170.79 170.61,-185.36l103.5 -85 96.23 -85.8c82.18,-217.73 156.04,-349.67 222.1,-393.38zm2773.36 3938.72l7.8 14.57 0 35.61 -13.53 23.48 -7.8 0 7.8 -12.15 0 -11.33 -7.8 -35.61 7.8 -14.57 5.73 0z"/>
  <path id="_15" class="fil0" d="M22628.89 3344.95c29.13,0 124.84,69.61 286.07,208.83l67.1 9.72 30.69 0c23.41,0 68.14,-32.38 134.19,-95.52l30.17 -8.9 6.24 8.9 0 19.43c-25.48,42.9 -52.01,102.8 -79.05,179.69l11.96 47.76 -6.24 9.71 18.72 179.7 -12.48 19.42 0 9.72c23.4,46.95 37.45,101.18 42.65,161.08 11.44,0 31.73,76.08 60.85,227.45 44.74,109.27 67.1,191.02 67.1,246.88 12.49,26.71 18.21,99.56 18.21,217.73l0 28.33c28.6,0 65.01,-28.33 109.74,-84.99l0 -18.61 -5.71 -9.72 0 -9.71 5.71 -9.71 6.25 0 18.2 29.14 0 56.66c0,74.47 -30.16,131.13 -91.54,170.79 0,33.19 10.4,58.28 30.69,76.09l-6.24 46.94c48.89,191.03 83.22,358.58 104.02,502.66 16.13,39.67 28.09,93.09 36.41,161.08l-6.24 0c90.51,341.58 179.97,543.94 268.39,607.08l109.75 85.8 0 18.62c-91.55,-40.48 -234.06,-129.51 -427.03,-265.5l-60.86 0c-81.14,0 -182.57,41.28 -304.8,123.84 -16.12,-9.71 -24.44,-19.42 -24.44,-29.14 131.07,-119.79 200.25,-227.45 207.53,-322.15 10.92,0 21.32,-145.7 30.17,-436.29l-18.21 -170.79c-7.8,0 -18.2,-56.66 -30.17,-170.79l-6.24 -9.71 6.24 -46.95c-55.13,-46.14 -89.46,-80.94 -104.02,-104.42 -72.82,21.86 -109.75,43.71 -109.75,66.38l-164.37 18.61 -48.88 0c-21.33,0 -39.54,9.72 -54.62,28.33l-30.69 0c0,19.43 -7.8,38.05 -24.44,57.47l6.24 8.91 0 9.71c-11.97,29.95 -26.53,159.46 -42.65,389.34l6.24 28.33 -6.24 151.36 0 76.09 -6.25 56.66c28.61,107.66 57.22,183.74 85.31,228.26l79.58 132.75 -12.48 18.62c-172.69,-107.66 -339.14,-161.08 -499.85,-161.08l-11.97 0c-46.81,0 -115.99,12.95 -207.53,38.04l-5.73 -9.71 0 -18.62c155.52,-79.32 261.11,-205.59 316.77,-379.62 60.85,-190.22 105.58,-354.54 134.19,-493.76 8.32,-2.43 16.13,-18.62 24.45,-46.95l-6.24 -28.33 -6.24 0 -243.43 170.79c-36.93,36.43 -55.13,73.66 -55.13,113.33l0 28.33c16.12,44.51 40.57,66.37 73.33,66.37 40.58,-13.76 60.86,-45.33 60.86,-94.7 -5.2,-28.33 -21.32,-50.19 -48.89,-66.38 -17.16,6.48 -31.2,22.67 -42.65,47.76 0,28.33 12.48,46.95 36.93,56.66l18.21 -46.95 -18.21 -19.42 -18.72 19.42 0 -9.71 18.72 -28.33 5.72 0 24.45 38.04 0 37.24 -18.21 29.14 -11.96 0c-36.93,-12.96 -55.13,-29.14 -55.13,-47.76l0 -47.76c0,-43.71 20.28,-66.37 60.85,-66.37 28.61,0 55.13,31.57 79.58,95.51l0 37.24c0,62.32 -30.69,100.37 -91.55,114.13l-42.64 0c-57.22,-18.62 -85.31,-56.66 -85.31,-114.13l0 -8.91c0,-118.99 34.34,-200.74 103.51,-246.88l316.76 -246.87 0 -8.91 -5.72 -9.71 42.65 -123.04c0,-71.23 16.13,-134.36 48.38,-190.21l0 -132.75c0,-31.57 14.56,-59.9 42.65,-84.99l42.65 -246.88c16.65,-71.23 30.69,-182.12 42.65,-331.87 -40.57,-182.12 -76.98,-293.02 -109.23,-331.87 0,-12.95 -34.85,-60.71 -104.03,-142.46l-11.96 -28.33 6.24 -9.71zm133.68 1565.45l36.93 18.62c202.85,-33.19 304.8,-55.05 304.8,-66.38 1.04,-12.95 15.08,-21.85 42.64,-28.33l0 -19.43 -18.2 0 0 -28.33 5.73 -38.04 -109.75 -569.03 -30.17 -94.71 0 -56.66 -12.49 0c-5.72,0 -22.36,53.43 -48.37,161.08 -36.93,213.69 -67.09,333.49 -91.54,360.2 -36.93,114.13 -62.94,233.93 -79.58,361.01z"/>
  <path id="_16" class="fil0" d="M24905.52 3038.98l36.41 0c56.7,0 91.55,56.66 103.51,170.79l0 9.71c0,161.08 -36.41,310.02 -109.75,446l6.24 8.91 0 9.71c-68.13,137.61 -122.74,270.35 -164.36,398.24 -105.58,183.75 -166.96,351.3 -183.08,502.66l0 19.43c0,131.13 18.2,209.65 55.13,237.17l18.2 0 24.45 -19.43 0 -46.95 11.96 -19.42 18.21 28.33 0 9.71c0,69.61 -18.21,104.42 -54.62,104.42l-24.44 0c-43.7,0 -70.22,-44.52 -79.06,-132.75l0 -94.71c0,-148.93 32.25,-297.06 97.27,-445.99l18.2 -76.09 0 -28.33c-14.05,-88.23 -60.86,-132.75 -139.92,-132.75l-12.48 0c-114.43,20.24 -266.83,169.17 -457.2,446 -75.94,142.46 -114.43,246.07 -115.47,312.44l-6.24 9.72c-48.9,205.59 -73.34,382.86 -73.34,530.99l0 19.42 -11.97 76.09 0 8.9c13.01,160.27 39.54,280.07 79.07,361.01 42.65,146.51 105.58,276.02 189.32,388.53 0,21.05 32.26,67.99 97.27,142.46 4.16,13.76 60.86,71.23 170.6,170.79 0,13.76 42.66,51.81 127.96,113.32l91.54 101.99 -6.24 9.72 463.44 237.16c120.67,63.14 281.39,110.89 481.65,142.46 28.09,41.28 42.65,79.33 42.65,114.13l0 66.38c-18.21,113.32 -55.14,169.98 -109.75,169.98l-18.21 0c-16.64,-8.9 -24.44,-31.57 -24.44,-66.37l5.72 -8.91 12.49 0 -6.25 8.91 0 19.42 18.2 28.33c48.9,-33.18 73.34,-83.37 73.34,-151.36 0,-66.38 -103.5,-120.61 -311.04,-161.89 -261.11,-88.23 -531.05,-227.45 -810.37,-416.86 -97.78,-61.52 -189.33,-133.56 -274.63,-216.12 -149.28,-161.08 -224.18,-249.31 -225.22,-265.49 -18.2,-36.43 -40.57,-68 -67.1,-94.71 -113.9,-297.06 -170.6,-496.18 -170.6,-597.36 -32.77,-142.46 -48.89,-263.07 -48.89,-361.01 0,-149.75 32.76,-348.87 97.78,-597.37 24.97,-52.61 47.33,-121.41 66.58,-208.83 46.81,-86.61 97.79,-165.94 152.4,-237.17 178.93,-208.83 319.36,-313.25 420.79,-313.25 37.45,-25.09 120.67,-46.94 249.67,-66.37 154.47,-86.61 252.26,-174.84 292.83,-265.5 44.74,-113.32 67.1,-195.88 67.1,-246.07 -17.16,-69.61 -33.81,-104.41 -48.9,-104.41l-11.95 0c-9.37,0 -17.69,21.85 -24.46,66.37l-12.47 0 -18.21 -28.33c8.32,-57.47 18.21,-85.8 30.68,-85.8z"/>
  <path id="_17" class="fil0" d="M25767.91 3107.78c82.18,12.95 123.28,34.81 123.28,66.38l0 30.76c0,39.66 -9.37,64.75 -27.58,76.08l-34.85 0 -14.04 -21.04 0 -21.86 14.04 -21.04 0 8.9 -6.23 34 33.8 0 21.33 -42.9c-8.32,-42.9 -29.13,-63.95 -62.94,-63.95 -87.38,10.52 -183.6,72.04 -289.19,182.12 -130.04,99.57 -196.62,419.29 -199.73,958.38l7.8 63.94c-6.24,36.43 -13.53,54.24 -21.33,54.24l7.28 76.08 0 42.9 -7.28 76.09c6.76,0 18.73,25.09 34.85,75.28l0 21.85c0,151.37 18.2,370.72 55.13,656.45l-20.28 33.19 0 21.86c13.52,0 33.81,132.74 61.38,398.24 18.2,97.94 64.49,177.27 138.35,237.16l47.34 76.09 0 21.05 -13.53 21.04c-42.65,-21.85 -115.99,-40.47 -219.5,-54.23 -123.27,0 -288.15,50.18 -495.16,151.36l-21.33 0 -21.33 -33.18 150.84 -118.18c59.82,-47.76 103.51,-123.03 131.08,-225.02l0 -24.29 -6.24 -73.66c11.96,0 26,-53.42 41.09,-161.07 13,-17 19.76,-42.9 19.76,-76.09l0 -118.18 -13.52 -33.18 0 -33.19c23.41,-156.22 34.85,-278.45 34.85,-365.06l0 -42.9 -21.33 -151.36 0 -128.7 15.08 -66.38 6.25 -602.22 0 -140.03c-8.84,-225.83 -30.17,-344.01 -62.42,-355.34 -63.98,-51 -114.43,-76.09 -150.84,-76.09l-21.32 0c-31.73,29.95 -47.34,73.66 -47.34,130.32 0,11.33 15.61,29.14 47.34,55.04l41.09 -24.28 0 12.14c-4.16,21.85 -17.68,33.19 -41.09,33.19 -29.65,0 -52.02,-25.1 -67.1,-76.09l0 -42.9c0,-70.42 24.97,-125.46 74.9,-163.51l33.29 12.14 97.26 0 268.39 -106.84c165.4,-109.28 292.32,-163.51 379.7,-163.51zm-758.88 431.43l7.28 0 21.33 33.19 0 9.71 -15.08 21.05 -13.53 -63.95z"/>
  <path id="_18" class="fil0" d="M26252.15 3306.9l158.65 0c111.83,0 190.88,31.57 237.7,94.71 11.44,0 27.56,22.66 48.89,66.37 78.02,47.76 135.23,123.85 170.6,228.26l103.51 151.37c0,39.66 24.44,112.51 73.34,218.55 40.57,71.23 60.85,200.74 60.85,388.53l6.25 85.8 0 378.81c-38.49,148.94 -71.26,256.59 -97.79,322.97 -57.73,132.74 -122.75,303.54 -195.05,512.37 -7.8,0 -11.96,12.14 -11.96,37.23 -19.25,0 -74.38,92.28 -164.88,275.21 -30.17,51 -60.86,76.09 -91.03,76.09 -63.98,0 -123.27,-34.81 -176.84,-104.42 -52.02,-36.42 -117.04,-93.08 -195.05,-170.79 -12.49,0 -58.78,-38.04 -140.44,-113.32 -88.42,-62.33 -147.2,-150.55 -176.85,-266.3l-109.75 -360.2 -5.72 0 5.72 -46.95c-17.16,-51 -29.13,-177.27 -36.41,-379.63 -11.96,0 -18.2,-57.47 -18.2,-170.79l18.2 -19.42 -6.24 -94.71 0 -161.08c0,-18.61 12.48,-59.89 36.93,-123.03 0,-33.19 34.33,-147.32 103.51,-341.58l67.1 -161.08c0,-30.76 46.81,-99.56 139.91,-208.84 32.77,0 79.58,-34.8 140.44,-104.41l54.61 -9.72zm-365.65 1223.87l0 142.46c0,207.22 20.28,339.97 60.85,398.25 0,23.47 32.77,131.12 97.79,322.15 37.45,26.71 108.71,112.51 213.25,256.59 80.11,61.52 139.4,124.66 176.85,189.41l79.06 28.33 109.75 -113.32c50.97,-64.75 101.95,-178.88 152.4,-341.58 89.46,-291.4 134.2,-547.18 134.2,-768.97 -16.13,-162.69 -42.66,-292.2 -79.07,-388.53 -9.36,-86.61 -54.09,-210.45 -134.19,-369.91l-115.99 -142.46 -182.57 -113.32 -48.89 0c-26.53,0 -87.38,53.42 -183.09,161.08 -67.1,91.46 -123.79,208.83 -170.6,350.48l-109.75 389.34z"/>
  <path id="_19" class="fil0" d="M27833.88 2507.99c44.74,39.66 112.87,131.94 204.41,277.64 135.24,141.65 271,260.64 408.31,355.34 80.1,50.99 129,89.85 146.16,118.99l-11.96 18.61 -19.77 0 -70.22 -9.71c-110.79,28.33 -165.92,81.75 -165.92,159.46 -50.97,119.8 -76.46,454.9 -76.46,1005.32l0 127.89 -11.96 89.85c3.64,140.84 11.96,232.31 24.44,275.21l13.53 998.84 0 39.66 11.96 78.52 0 178.08c0,186.17 30.17,308.39 89.99,365.05l32.24 18.62c23.41,-10.52 40.05,-37.24 49.94,-77.71 -5.73,-46.14 -14.57,-68.8 -25.49,-68.8l-6.24 0 -12.48 18.62 0 21.04 12.48 29.14 -12.48 0 -11.97 -19.42 0 -9.72c2.08,-38.85 8.32,-59.09 18.21,-59.09l26 0c25.49,22.67 37.97,51.81 37.97,88.23 -10.92,91.47 -36.41,137.61 -75.94,137.61l-6.24 0c-75.94,0 -159.68,-49.38 -249.66,-147.32 -42.14,-14.57 -62.94,-27.52 -62.94,-40.47 46.81,-53.43 70.22,-102.8 70.22,-146.51 -13.01,-115.75 -49.94,-284.11 -109.75,-505.9l-88.42 -383.67c0,-33.19 -14.57,-106.04 -44.22,-218.55 0,-25.09 -36.41,-143.27 -109.74,-355.34 -51.5,-242.02 -85.31,-363.44 -100.39,-365.06l-7.8 0c-27.05,0 -58.78,213.69 -94.15,642.69l-7.8 8.91 0 30.76 32.25 178.07 0 127.89 51.49 405.53c26.53,77.71 66.58,149.75 120.68,216.12 4.15,20.24 55.13,63.14 153.95,127.89l0 9.72 -14.04 21.04c-78.02,0 -203.37,-55.85 -376.06,-168.36l-108.19 -8.91 -24.44 0c-22.37,0 -115.99,59.09 -280.35,177.27l-32.25 0 0 -9.71c38.49,-48.57 79.06,-114.94 120.67,-199.12 48.37,-12.15 106.11,-143.27 172.16,-393.39l51.5 -267.92 0 -97.14 12.48 -30.75 0 -59.09 11.97 -157.03 0 -30.76 6.24 -286.54 -6.24 -297.07 0 -97.13 -6.25 -68.8 12.49 -21.05c-25.49,-180.5 -53.06,-338.34 -82.19,-474.33 -58.25,-195.88 -117.54,-293.82 -178.4,-293.82l-94.66 0c-76.99,0 -115.48,32.38 -115.48,97.13 8.85,39.66 26.01,59.09 51.49,59.09 17.17,-9.71 26.02,-18.62 26.02,-28.33l0 -50.19 -37.97 -8.9 11.95 -21.85c33.82,0 50.46,27.52 50.46,80.94 -6.24,46.14 -20.81,68.8 -44.21,68.8 -59.82,-11.33 -89.98,-50.99 -89.98,-118.99l0 -8.9c5.2,-79.32 29.12,-118.99 71.78,-118.99l56.17 0c72.3,0 171.64,-81.75 298.55,-246.07 43.7,-65.56 86.35,-111.7 127.96,-140.03 3.12,-14.57 35.37,-43.71 96.22,-88.23 36.41,-40.47 74.9,-67.18 114.44,-77.7l11.95 0 14.05 18.61c-119.11,142.47 -178.41,260.64 -178.41,356.16l0 8.9c0,74.47 35.89,262.26 108.19,562.56 14.05,5.67 24.97,59.09 31.73,158.65 12.49,0 18.73,42.9 18.73,127.89 34.32,94.7 51.49,170.79 51.49,227.45 71.26,135.99 109.23,261.45 114.43,374.77 10.92,3.24 47.33,127.89 108.18,374.77l6.25 0c0,-18.62 8.32,-38.85 25.49,-59.09l26 -246.88 0 -97.13 32.25 -367.48c0,-303.54 -10.92,-582.8 -32.25,-836.96l-19.76 -30.76 0 -50.19 6.24 -9.71 0 -8.9c-12.48,0 -20.29,-56.66 -24.45,-168.37 -16.12,0 -29.13,-65.56 -37.97,-196.69 -24.44,-117.37 -80.1,-271.97 -166.44,-465.42l-25.49 -39.67 5.72 -9.71z"/>
  <path id="_20" class="fil1 str0" d="M1793.84 3043.84l5.72 9.71 0 30.76c-37.45,66.37 -56.17,117.37 -56.17,153.79l6.24 30.76 -12.48 0 0 9.71 18.72 0 106.63 -18.61 42.65 0c7.8,0 11.97,8.9 11.97,28.33l12.48 0c65.53,0 105.59,8.9 118.58,28.33l6.25 0 211.7 30.76 74.9 0 217.41 115.75c24.45,14.57 36.93,40.47 36.93,78.51 13,0 33.81,58.28 62.41,175.65 -32.76,210.45 -86.33,359.39 -161.76,448.43l-106.62 156.22c-56.7,89.85 -112.87,148.93 -167.48,175.65 -7.29,26.71 -46.3,52.61 -117.56,78.51 -44.73,50.19 -105.06,75.28 -181,75.28l-111.31 30.76 -112.87 -18.62 13.52 87.42 -5.72 9.71c4.16,61.52 11.96,100.37 24.45,116.56l5.72 194.27 -5.72 215.31 56.17 407.95c8.32,0 11.96,17 11.96,50.19 35.9,137.6 97.79,245.26 186.21,322.15 0,25.91 41.61,60.71 124.84,106.85l48.88 0 0 28.33 -48.88 9.71c-147.2,-58.28 -256.95,-87.42 -329.25,-87.42 -118.59,0 -262.15,48.57 -429.63,146.51l-62.42 9.71 -6.24 -9.71 0 -28.33c55.13,0 129.51,-72.04 224.18,-215.31 61.89,-77.71 93.1,-178.08 93.1,-301.92l18.21 -146.51 -6.24 -28.33 6.24 -50.18 -12.49 -184.55 6.25 -106.85 0 -216.12c0,-96.32 -9.89,-216.12 -30.17,-360.2l18.2 -9.71 0 -18.62c-39.53,-46.14 -74.9,-68.8 -105.07,-68.8l-26 0c0,26.71 -4.16,40.47 -12.48,40.47 8.32,28.33 17.16,43.71 26,46.95l24.45 0 11.96 -18.62 0 -9.71 -5.72 -9.72 0 -8.9 5.72 0 12.48 18.62 0 18.61c0,19.43 -16.12,31.57 -48.89,38.05 -41.61,-26.71 -62.42,-65.57 -62.42,-115.75 13.01,-52.61 42.14,-78.52 86.87,-78.52l36.41 0 32.25 9.72 0 -9.72c0,-162.69 -6.25,-244.45 -18.21,-244.45l5.72 -66.37 0 -87.42 -19.76 -147.32 0 -18.61 14.04 -137.61 -19.76 -310.82c-52.02,38.04 -86.87,56.66 -105.59,56.66 -66.06,-20.24 -98.83,-65.57 -98.83,-135.18l0 -8.9c8.32,-72.85 28.61,-109.27 60.86,-109.27l32.25 0 30.17 49.37 -5.73 68.8 5.73 0c105.58,0 217.93,-106.84 337.04,-322.15zm-100.9 555.27l0 77.71 6.24 50.18 -6.24 59.09 0 46.95 14.04 69.61 -14.04 18.62 0 40.47 6.24 38.04 -6.24 68.8 0 87.42 6.24 263.07 13.52 19.43 0 77.7 93.11 9.72 56.69 0c85.3,-33.19 213.77,-123.85 385.42,-272.78 94.15,-118.18 148.24,-238.79 161.24,-360.2l0 -30.76c-29.12,-161.89 -67.09,-242.02 -112.34,-242.02 -56.18,-79.33 -122.24,-118.99 -198.18,-118.99l-6.24 0 -19.76 9.71 -30.69 -9.71 -56.18 0c-190.89,0 -286.59,17 -286.59,50.18l-6.24 47.76z"/>
  <path id="_21" class="fil1 str0" d="M3360.49 3309.33c0,17.81 67.62,39.66 202.33,66.38l243.95 175.64c73.33,79.33 109.74,169.18 109.74,270.36 0,59.89 -38.49,186.17 -115.99,379.62 -57.73,102.8 -102.47,153.79 -133.67,153.79 0,14.57 -30.69,37.24 -91.55,68.81 -87.38,89.84 -171.12,135.17 -251.74,135.17 -1.04,14.57 -17.17,26.71 -48.38,38.05 133.68,235.54 200.77,365.05 200.77,388.53 0,17.8 47.34,136.79 142,358.58 22.37,59.89 40.58,124.65 54.62,194.26l85.3 251.74 6.24 -9.72 12.49 0 0 18.62 -12.49 0 0 19.43c11.44,1.61 33.81,59.89 67.1,174.83 101.43,271.98 209.61,507.52 324.56,707.45 0,59.9 93.63,166.75 280.35,319.73 0,41.28 77.51,72.85 231.46,94.7l6.25 0c63.98,0 131.59,-54.23 202.85,-163.5 62.94,-97.94 95.18,-175.65 97.26,-232.31 0,-71.23 -28.08,-184.55 -85.3,-339.15l-11.96 0c-139.39,41.28 -209.1,93.08 -209.1,156.22l0 47.75c0,154.61 18.73,232.31 55.14,232.31l56.17 9.71c69.18,0 104.03,-32.37 104.03,-97.13l18.21 -68.8c0,-39.66 -28.61,-84.18 -85.31,-132.75l-24.44 -9.71c-26.53,0 -47.33,21.85 -62.42,66.37l0 47.76c0,58.28 16.65,87.42 49.93,87.42 21.33,0 37.97,-17 48.9,-50.19l0 -46.94 -18.21 -28.33 -6.24 0c-22.36,0 -36.41,12.14 -42.65,38.04l0 18.62 12.48 18.61 23.93 0 6.24 -28.33 -11.96 -18.61 0 -9.72 5.72 0 12.48 19.43 0 37.23c-4.16,21.05 -16.12,31.57 -36.41,31.57 -25.48,-27.52 -38.49,-59.9 -38.49,-97.94l68.66 -66.37c36.41,29.95 55.14,67.99 55.14,114.13l0 40.47c-46.81,56.66 -81.66,84.99 -104.03,84.99 -41.61,-81.75 -62.42,-140.03 -62.42,-173.22 19.25,-67.99 48.37,-118.99 86.86,-153.79l12.49 0c35.37,3.23 82.18,57.47 139.92,163.5l0 38.05c-4.17,66.37 -22.37,140.84 -54.62,222.59l-55.13 0 -117.04 9.72c-44.73,0 -67.09,-71.24 -67.09,-213.7 -12.48,-23.47 -18.2,-48.56 -18.2,-75.27l0 -135.18c50.45,-50.99 128.47,-95.51 233.01,-135.18 50.98,0 85.31,35.62 103.51,106.85 13.53,5.67 41.61,118.18 85.3,336.73l12.49 30.75c-114.95,237.17 -221.06,369.11 -318.85,395.82l-176.32 9.71 -207.53 -106.84c-8.85,-16.19 -93.11,-84.18 -251.23,-203.98 -134.2,-227.45 -215.34,-414.43 -243.95,-560.13 -18.2,-17 -60.85,-114.13 -127.95,-291.4l-202.85 -492.95 -67.1 -272.78c-21.32,-28.33 -45.77,-83.37 -72.82,-163.5 -19.24,-22.67 -72.3,-126.27 -158.64,-310.83 -54.09,-84.18 -94.66,-125.46 -121.71,-125.46l-36.93 0 -18.2 28.33 0 8.91c0,21.04 10.4,30.75 30.68,30.75l0 19.43 -18.2 0 0 76.09 18.2 40.47 5.73 194.26 -5.73 210.46 54.62 407.95c8.32,0 12.48,17 12.48,50.19 35.37,135.98 96.23,242.02 182.57,317.3 0,27.52 40.57,63.13 122.23,106.84l48.37 0 0 30.76 -48.37 9.72c-144.6,-58.28 -252.27,-87.42 -323.52,-87.42 -116.51,0 -257.47,47.75 -421.83,144.08l-60.86 9.71 -6.24 -9.71 0 -28.33c54.09,0 126.91,-71.23 219.49,-212.89 61.91,-77.7 93.11,-178.07 93.11,-301.11l18.2 -144.89 -6.24 -28.33 6.24 -50.18 -12.48 -182.12 6.24 -106.85 0 -272.78 -6.24 -97.13 6.24 -85.8 0 -87.42 -31.73 -9.71 -18.72 0c-24.97,0 -45.77,21.85 -60.85,66.37l0 12.14c9.36,25.09 19.24,38.04 30.69,38.04l0 18.62c-57.22,0 -85.31,-32.38 -85.31,-97.13 0,-64.76 46.81,-110.08 139.92,-135.18l14.04 0 0 -28.33 -14.04 -30.76 0 -106.84c-11.97,0 -18.21,-51.81 -18.21,-154.6l-11.96 -18.62 5.72 -68.8 0 -84.99c0,-54.24 -5.72,-97.14 -18.21,-128.7l6.25 -106.04c-9.36,0 -23.41,-71.23 -42.66,-213.69 -11.44,-12.95 -21.32,-51.81 -30.68,-116.56 -10.92,-38.04 -31.21,-56.66 -60.86,-56.66l-73.34 38.04 -11.96 -28.33 0 -9.71c58.78,-71.23 285.04,-116.56 678.26,-135.18zm-207.54 232.31l-18.2 -9.71c-44.74,24.28 -67.1,63.13 -67.1,116.56 -16.13,0 -24.45,71.23 -24.45,213.69l12.49 46.95 -12.49 19.42 0 40.47 6.25 37.24 -6.25 68.8 0 85.8 6.25 263.07 12.48 18.61 -6.24 88.23 6.24 0c26,-26.71 46.29,-40.47 60.86,-40.47l91.02 0c143.55,-64.75 251.23,-125.46 323.52,-182.93 109.75,-103.61 178.93,-233.93 208.58,-388.53l0 -47.76c-28.61,-161.08 -65.02,-241.21 -109.75,-241.21 -54.62,-77.71 -120.15,-116.56 -196.62,-116.56l-6.23 0 -18.21 9.71 -30.17 -9.71 -12.48 0 -158.64 9.71 -18.21 -9.71 -42.65 28.33z"/>
  <path id="_22" class="fil1 str0" d="M4500.11 3306.9l158.64 0c111.83,0 190.89,31.57 237.7,94.71 11.44,0 27.57,22.66 48.89,66.37 78.02,47.76 135.24,123.85 170.6,228.26l103.51 151.37c0,39.66 24.45,112.51 73.34,218.55 40.57,71.23 60.85,200.74 60.85,388.53l6.25 85.8 0 378.81c-38.49,148.94 -71.26,256.59 -97.79,322.97 -57.73,132.74 -122.75,303.54 -195.04,512.37 -7.81,0 -11.97,12.14 -11.97,37.23 -19.24,0 -74.38,92.28 -164.88,275.21 -30.17,51 -60.86,76.09 -91.02,76.09 -63.99,0 -123.28,-34.81 -176.85,-104.42 -52.02,-36.42 -117.04,-93.08 -195.05,-170.79 -12.49,0 -58.78,-38.04 -140.44,-113.32 -88.42,-62.33 -147.2,-150.55 -176.85,-266.3l-109.74 -360.2 -5.72 0 5.72 -46.95c-17.17,-51 -29.13,-177.27 -36.41,-379.63 -11.97,0 -18.21,-57.47 -18.21,-170.79l18.21 -19.42 -6.24 -94.71 0 -161.08c0,-18.61 12.48,-59.89 36.93,-123.03 0,-33.19 34.32,-147.32 103.5,-341.58l67.1 -161.08c0,-30.76 46.81,-99.56 139.91,-208.84 32.78,0 79.58,-34.8 140.44,-104.41l54.62 -9.72zm-365.66 1223.87l0 142.46c0,207.22 20.28,339.97 60.86,398.25 0,23.47 32.76,131.12 97.78,322.15 37.45,26.71 108.71,112.51 213.26,256.59 80.1,61.52 139.39,124.66 176.84,189.41l79.07 28.33 109.74 -113.32c50.97,-64.75 101.95,-178.88 152.4,-341.58 89.46,-291.4 134.2,-547.18 134.2,-768.97 -16.13,-162.69 -42.66,-292.2 -79.06,-388.53 -9.37,-86.61 -54.1,-210.45 -134.2,-369.91l-115.99 -142.46 -182.57 -113.32 -48.89 0c-26.53,0 -87.38,53.42 -183.09,161.08 -67.1,91.46 -123.79,208.83 -170.6,350.48l-109.75 389.34z"/>
  <path id="_23" class="fil1 str0" d="M6895.85 3062.45l62.41 9.72 0 19.42c-122.75,56.66 -211.69,148.13 -266.83,274.4l-135.75 379.63c0,33.19 -16.12,91.47 -48.38,175.65 -177.88,464.61 -266.82,724.44 -266.82,780.29 0,18.62 -18.21,68 -55.14,146.51 -13,114.13 -31.72,201.55 -56.17,263.88l-6.24 127.89 0 175.65c20.28,45.33 30.69,84.18 30.69,115.75l0 59.08c0,167.56 39,304.35 117.55,410.39 34.32,115.75 87.9,199.93 161.23,254.16l56.18 0c30.69,0 48.89,-32.38 55.13,-97.13l0 -59.9c-11.96,-38.85 -30.68,-59.09 -55.13,-59.09l-7.28 0 -30.69 40.47 0 -21.04c6.24,-27.52 16.13,-46.14 30.69,-57.47l26 0c48.38,16.19 72.82,55.04 72.82,116.56l0 18.62c0,85.8 -36.93,134.36 -111.31,147.31l-5.72 0c-43.69,0 -111.83,-29.14 -204.41,-88.23 -46.81,-45.32 -124.83,-67.99 -234.58,-67.99 -84.26,0 -166.44,25.9 -247.07,77.71 39.02,-33.19 96.23,-166.75 172.17,-400.67l6.24 -9.72 -6.24 -38.04c17.69,-55.04 32.25,-142.46 44.21,-263.07l0 -174.84c-10.92,0 -21.85,-163.5 -31.73,-488.9 -27.57,-47.75 -54.09,-109.27 -79.58,-185.36 -7.8,0 -14.04,-29.14 -18.2,-87.42 -27.05,-44.51 -65.02,-148.12 -112.35,-313.25l-73.34 -203.98c0,-69.61 -61.89,-219.35 -186.21,-450.04 -32.24,-94.71 -71.26,-157.03 -117.03,-185.36 -28.61,0 -50.97,32.37 -67.1,97.13 0,39.66 20.29,59.9 60.86,59.9l-11.96 18.61 -6.24 0c-31.73,0 -52.54,-15.38 -62.42,-47.75l0 -77.71c0,-82.56 36.93,-137.6 111.31,-165.93l246.54 38.04c61.38,0 146.16,-52.61 254.87,-157.03l0 9.71c-82.7,124.66 -123.8,222.6 -123.8,293.83 0,270.35 39.02,518.04 117.56,742.25 36.41,190.22 71.78,322.97 105.06,398.24 19.25,117.37 35.37,175.65 48.9,175.65l11.96 0c20.29,-25.09 47.33,-96.32 81.14,-212.88 37.45,-59.09 95.19,-244.45 173.2,-557.7 14.57,0 26.53,-90.66 36.93,-272.78l0 -263.07c-13.52,-104.42 -46.29,-156.22 -99.34,-156.22l-30.17 0c0,-19.43 27.05,-29.14 80.62,-29.14l36.42 0 62.93 19.43c63.98,0 214.29,-84.99 450.96,-254.17l42.65 0zm-704.26 272.78l18.2 0 -11.96 19.43 -6.24 0 0 -19.43zm-847.31 127.9l18.21 0 24.45 38.04 0 40.47 -11.97 19.43 -6.24 0 12.48 -29.14 -24.44 -49.38 -24.45 18.62 0 -18.62 11.96 -19.42z"/>
  <path id="_24" class="fil1 str0" d="M7669.81 3157.97l6.24 28.33c-102.47,194.26 -153.96,344.82 -153.96,452.47 -11.96,26.71 -24.45,116.56 -36.41,267.93l24.45 277.63 -6.25 9.72 6.25 12.14 -6.25 8.9 -6.24 0c-32.24,-107.65 -48.89,-210.45 -48.89,-308.39l0 -97.14 6.24 -38.04c0,-48.57 -20.28,-93.08 -60.86,-132.75 -250.18,12.95 -375.01,38.05 -375.01,76.09 -36.41,0 -54.61,16.19 -54.61,47.76l-30.69 500.23 12.48 56.66 -6.24 78.51c0,50.19 28.6,76.09 85.3,76.09 138.36,0 244.47,-76.89 318.33,-230.69l12.47 -37.23c-6.24,-27.52 -12.47,-40.47 -18.2,-40.47l-12.48 0 0 18.61 -11.96 0c4.68,-31.56 10.92,-47.75 18.2,-47.75l24.44 0c21.33,14.57 31.74,46.94 31.74,97.94 0,51.8 -28.61,131.94 -86.87,239.59 -72.82,184.55 -109.75,331.87 -109.75,440.34l0 29.14 24.45 39.66c24.45,-7.29 36.41,-37.24 36.41,-87.42l12.48 18.62 0 9.71c-5.2,58.28 -23.4,88.23 -55.13,88.23 -24.97,0 -39.53,-26.71 -42.65,-78.52 0,-59.9 8.32,-140.03 24.44,-239.59 -11.96,-56.66 -30.16,-84.99 -54.61,-84.99l-80.62 0c-77.5,12.14 -115.99,46.95 -115.99,103.61l0 59.89c0,237.17 6.24,393.39 18.21,469.48l0 106.84c19.24,242.83 35.36,365.06 48.88,365.06l-12.47 28.33c39,121.41 82.18,195.07 129.51,220.17 49.93,63.94 96.74,108.46 140.43,135.17 22.37,46.14 71.78,90.66 147.72,132.75 176.85,102.8 299.08,190.22 367.22,261.45l24.44 0c41.61,0 91.03,25.09 147.72,75.27l30.69 9.72 60.86 0c14.04,0 28.6,9.71 42.64,28.33 86.35,0 129.52,-47.76 129.52,-144.08 8.32,-3.24 16.13,-31.57 24.45,-85.8l-6.25 -38.05 24.45 -18.61c20.29,38.04 30.69,78.51 30.69,123.03 0,77.71 -28.6,166.75 -85.3,267.93l-36.93 40.47 -68.66 0c-43.69,0 -117.03,-38.86 -220.54,-115.75l-251.74 -123.85c-8.85,-15.37 -96.75,-73.65 -263.71,-173.22 -69.7,-45.32 -147.2,-84.18 -231.46,-115.74 0,-36.43 -83.74,-71.23 -251.23,-104.42l-6.24 0 -251.22 123.03 -24.45 9.72 -6.24 -9.72 0 -9.71c134.19,-217.74 201.29,-386.91 201.29,-506.71l36.41 -164.31 -6.24 -8.91 0 -9.71 6.24 -9.71 -6.24 -68.81 0 -153.79 6.24 -9.71 -6.24 -9.72 0 -8.9 -11.96 -403.1 6.24 0 -6.24 -9.71 0 -56.66 6.24 -50.19 -6.24 -38.04 11.96 -211.26 -11.96 -75.28 0 -154.6 -12.49 -135.18 6.24 -56.66c-20.28,-71.23 -40.56,-170.79 -60.85,-298.68 -7.28,-1.62 -19.25,-29.95 -36.41,-85.8 -46.81,-31.57 -85.3,-46.95 -115.99,-46.95 -69.18,15.38 -103.51,70.42 -103.51,163.51 0,23.47 20.28,42.9 60.86,56.66 16.12,-6.48 24.44,-25.1 24.44,-56.66l0 -30.76 -18.2 -38.05 -30.69 28.33 -6.24 0 0 -9.71 24.45 -38.04 12.48 0 30.17 47.75 0 68.81c-13.01,38.04 -35.37,56.66 -67.1,56.66 -37.45,0 -56.18,-54.24 -56.18,-163.51 19.25,-114.94 66.58,-173.22 141.48,-173.22l231.98 0c208.05,0 383.86,-34.8 526.9,-104.42 172.68,-143.27 265.27,-239.59 277.75,-288.97l30.17 -18.61zm-447.84 1690.1l6.24 0 23.93 38.05 0 9.71 -18.2 -18.62 -18.21 0 0 37.24 -11.96 -18.62 0 -18.62 18.2 -29.14z"/>
  <path id="_25" class="fil1 str0" d="M8788.62 3038.98l36.41 0c56.69,0 91.54,56.66 103.5,170.79l0 9.71c0,161.08 -36.4,310.02 -109.74,446l6.24 8.91 0 9.71c-68.14,137.61 -122.75,270.35 -164.36,398.24 -105.59,183.75 -166.97,351.3 -183.09,502.66l0 19.43c0,131.13 18.2,209.65 55.13,237.17l18.21 0 24.44 -19.43 0 -46.95 11.97 -19.42 18.2 28.33 0 9.71c0,69.61 -18.2,104.42 -54.61,104.42l-24.45 0c-43.69,0 -70.22,-44.52 -79.06,-132.75l0 -94.71c0,-148.93 32.25,-297.06 97.27,-445.99l18.2 -76.09 0 -28.33c-14.04,-88.23 -60.86,-132.75 -139.91,-132.75l-12.49 0c-114.43,20.24 -266.83,169.17 -457.2,446 -75.94,142.46 -114.43,246.07 -115.47,312.44l-6.24 9.72c-48.89,205.59 -73.34,382.86 -73.34,530.99l0 19.42 -11.96 76.09 0 8.9c13,160.27 39.53,280.07 79.06,361.01 42.65,146.51 105.59,276.02 189.33,388.53 0,21.05 32.25,67.99 97.27,142.46 4.15,13.76 60.85,71.23 170.6,170.79 0,13.76 42.65,51.81 127.95,113.32l91.54 101.99 -6.24 9.72 463.44 237.16c120.68,63.14 281.39,110.89 481.65,142.46 28.09,41.28 42.65,79.33 42.65,114.13l0 66.38c-18.2,113.32 -55.13,169.98 -109.75,169.98l-18.2 0c-16.65,-8.9 -24.45,-31.57 -24.45,-66.37l5.72 -8.91 12.49 0 -6.25 8.91 0 19.42 18.21 28.33c48.89,-33.18 73.34,-83.37 73.34,-151.36 0,-66.38 -103.51,-120.61 -311.04,-161.89 -261.11,-88.23 -531.06,-227.45 -810.37,-416.86 -97.79,-61.52 -189.34,-133.56 -274.63,-216.12 -149.28,-161.08 -224.18,-249.31 -225.22,-265.49 -18.21,-36.43 -40.58,-68 -67.1,-94.71 -113.91,-297.06 -170.6,-496.18 -170.6,-597.36 -32.78,-142.46 -48.9,-263.07 -48.9,-361.01 0,-149.75 32.77,-348.87 97.78,-597.37 24.98,-52.61 47.34,-121.41 66.58,-208.83 46.82,-86.61 97.79,-165.94 152.41,-237.17 178.92,-208.83 319.36,-313.25 420.78,-313.25 37.45,-25.09 120.67,-46.94 249.67,-66.37 154.48,-86.61 252.27,-174.84 292.83,-265.5 44.74,-113.32 67.1,-195.88 67.1,-246.07 -17.16,-69.61 -33.81,-104.41 -48.89,-104.41l-11.96 0c-9.36,0 -17.69,21.85 -24.45,66.37l-12.48 0 -18.21 -28.33c8.33,-57.47 18.21,-85.8 30.69,-85.8z"/>
  <path id="_26" class="fil1 str0" d="M10516.51 2659.35l18.2 0c47.86,0 80.62,67.19 98.83,201.55l0 59.9c0,81.76 -47.85,185.36 -143.04,310.02 -73.34,128.7 -118.59,233.92 -135.75,318.11l-6.25 125.46c0,26.71 10.41,50.18 30.69,68.8l18.21 -9.71 0 9.71 -11.97 19.43 -18.2 0c-16.65,0 -30.69,-48.57 -42.65,-144.89l0 -116.56c0,-34.81 -8.84,-57.47 -26.01,-68.8l-36.93 0 -236.14 68.8 -36.41 0 -18.2 -18.62 -12.48 0c-11.97,17 -57.74,36.43 -136.8,56.66l-18.21 50.19c0,46.94 -6.24,72.85 -18.72,76.08l6.24 30.76c-29.13,233.93 -50.45,484.86 -62.42,753.59 -8.32,0 -11.96,9.71 -11.96,28.33l-6.24 282.49 11.96 474.33 -5.72 0c37.45,333.49 82.7,547.18 135.23,640.27 0,23.47 27.05,84.18 81.14,182.93 36.41,76.9 84.27,115.75 143.04,115.75l0 19.43 -56.17 21.04 -61.37 0c-194.01,-64.75 -309.49,-97.13 -347.46,-97.13 -119.63,25.09 -204.41,50.18 -254.34,76.09l-11.97 0 -12.48 -19.43c156.56,-165.94 235.1,-327.01 235.1,-484.04l5.72 -194.27 -5.72 -357.77 -12.48 -56.66c16.13,-84.18 24.45,-223.41 24.45,-417.67l-6.25 -153.79 14.05 -19.43 -7.8 -301.11 7.8 -9.71 0 -8.91 -19.77 -195.07 11.97 -18.62 0 -9.71 -11.97 -18.62 5.72 -40.47c-11.96,-232.31 -32.24,-348.87 -60.85,-348.87l-37.97 -9.71 -86.87 0c-149.27,0 -258.51,35.61 -327.68,106.84 -97.78,64.76 -163.84,162.7 -198.17,292.21l-13.52 75.28c5.71,33.19 12.47,50.18 19.76,50.18l24.45 0 11.96 -18.61 0 -31.57 -6.25 -8.9 0 -9.72 6.25 -9.71 6.24 0 18.2 28.33 0 59.9c-4.15,18.61 -16.12,28.33 -36.4,28.33l-18.73 0c-33.29,0 -54.09,-35.62 -62.41,-106.85l0 -38.04c0,-44.52 56.17,-180.51 168,-407.96 66.05,-184.55 98.82,-307.58 98.82,-367.48l12.49 -173.22 -36.93 -146.51 6.24 0c32.25,46.95 48.89,102.8 48.89,165.94l0 38.04 -18.2 250.92c14.04,84.19 39.01,125.47 74.38,125.47l341.21 -8.91 48.89 -19.42 86.86 0c120.15,0 345.37,-54.24 676.7,-163.51l98.82 -68.8c102.99,-140.84 153.96,-217.74 153.96,-232.31l12.49 -97.13c-6.24,-102.8 -28.61,-153.8 -67.1,-153.8 -31.73,0 -50.45,12.15 -56.7,37.24l0 19.43 12.49 30.75 -12.49 0 -11.96 -21.04 0 -47.76c14.04,-31.57 36.93,-47.76 68.66,-47.76z"/>
  <path id="_27" class="fil1 str0" d="M10982.55 3306.9l158.64 0c111.83,0 190.89,31.57 237.7,94.71 11.45,0 27.57,22.66 48.9,66.37 78.02,47.76 135.23,123.85 170.6,228.26l103.51 151.37c0,39.66 24.44,112.51 73.34,218.55 40.57,71.23 60.85,200.74 60.85,388.53l6.25 85.8 0 378.81c-38.49,148.94 -71.26,256.59 -97.79,322.97 -57.73,132.74 -122.75,303.54 -195.05,512.37 -7.81,0 -11.96,12.14 -11.96,37.23 -19.25,0 -74.38,92.28 -164.89,275.21 -30.16,51 -60.85,76.09 -91.02,76.09 -63.98,0 -123.27,-34.81 -176.84,-104.42 -52.02,-36.42 -117.04,-93.08 -195.06,-170.79 -12.48,0 -58.77,-38.04 -140.43,-113.32 -88.42,-62.33 -147.2,-150.55 -176.85,-266.3l-109.75 -360.2 -5.72 0 5.72 -46.95c-17.16,-51 -29.13,-177.27 -36.41,-379.63 -11.96,0 -18.2,-57.47 -18.2,-170.79l18.2 -19.42 -6.24 -94.71 0 -161.08c0,-18.61 12.48,-59.89 36.93,-123.03 0,-33.19 34.33,-147.32 103.5,-341.58l67.1 -161.08c0,-30.76 46.82,-99.56 139.92,-208.84 32.77,0 79.58,-34.8 140.44,-104.41l54.61 -9.72zm-365.65 1223.87l0 142.46c0,207.22 20.28,339.97 60.85,398.25 0,23.47 32.77,131.12 97.79,322.15 37.45,26.71 108.71,112.51 213.25,256.59 80.11,61.52 139.4,124.66 176.85,189.41l79.06 28.33 109.75 -113.32c50.97,-64.75 101.95,-178.88 152.4,-341.58 89.46,-291.4 134.2,-547.18 134.2,-768.97 -16.13,-162.69 -42.66,-292.2 -79.07,-388.53 -9.36,-86.61 -54.09,-210.45 -134.19,-369.91l-115.99 -142.46 -182.57 -113.32 -48.9 0c-26.52,0 -87.37,53.42 -183.08,161.08 -67.1,91.46 -123.79,208.83 -170.6,350.48l-109.75 389.34z"/>
  <path id="_28" class="fil1 str0" d="M12753.61 3204.92l0 25.9c-81.66,152.17 -122.23,294.63 -122.23,427.38 -15.08,56.66 -22.88,128.7 -22.88,215.31l0 45.33 -10.41 18.62 -12.48 -28.33 0 -54.24c0,-159.46 -41.09,-271.16 -123.28,-334.29l-134.19 -71.24 -27.57 0c-17.16,0 -54.09,26.72 -110.79,80.14 -32.76,9.71 -66.57,52.61 -102.46,128.7l-27.57 80.13 0 45.33c0,69.61 61.89,184.55 184.65,344.01l-10.41 16.19c22.89,8.1 73.34,72.04 150.85,192.65 67.62,156.22 120.15,234.73 156.56,234.73 15.6,18.62 50.97,93.9 106.62,225.03 30.69,71.23 54.61,188.6 71.78,352.91 26.53,74.47 39.53,125.46 39.53,152.18 -5.2,64.75 -25.48,134.36 -60.85,208.83 -49.94,142.46 -106.11,265.5 -169.05,369.91 -146.16,169.18 -230.42,253.36 -251.75,253.36l-49.93 9.71c-93.62,-39.66 -185.16,-127.08 -274.62,-263.07 -33.3,-25.09 -49.94,-89.03 -49.94,-190.21 -10.4,0 -19.25,-41.29 -27.57,-125.47 0,-151.36 24.45,-250.92 73.34,-298.68 0,-56.66 31.21,-101.99 94.15,-135.18 0,-11.33 20.8,-22.66 62.41,-35.61l17.17 0c99.34,55.04 151.36,88.23 154.99,99.56 11.45,21.86 17.17,42.9 17.17,61.52l0 137.6c-12.48,114.13 -38.49,170.79 -78.02,170.79 -55.65,-10.52 -83.74,-52.61 -83.74,-125.46l0 -18.62c27.57,-67.18 47.85,-102.8 60.86,-109.27l45.77 0 0 -9.71c-19.25,-46.14 -56.7,-84.19 -112.87,-116.56l-4.16 -8.91 -6.24 0c-55.14,45.33 -105.07,139.23 -150.85,279.26l0 9.71c0,223.41 10.93,334.3 33.3,334.3 65.01,94.7 130.03,152.98 195.05,173.22 78.54,-13.76 130.55,-42.09 157.08,-82.56 122.75,-190.22 201.29,-355.35 234.58,-496.19l6.24 -54.23 0 -19.43c-39.53,-270.35 -84.26,-462.99 -134.2,-577.93 -27.56,-25.91 -53.57,-82.57 -79.05,-170.8 -58.26,-99.56 -123.28,-172.41 -195.06,-218.54 -164.88,-134.37 -247.06,-236.36 -247.06,-305.97l-16.65 -191.84c3.13,-52.61 40.58,-151.36 112.87,-296.25 39.54,-36.43 97.27,-106.04 173.73,-208.84l54.61 -35.61c53.06,0 149.8,35.61 291.28,106.84 61.89,0 123.27,-68.8 184.13,-206.4l17.16 -9.71z"/>
  <path id="_29" class="fil1 str0" d="M14173.58 3273.72c191.93,47.75 330.28,97.94 414.55,152.17 239.78,152.98 404.14,390.15 493.61,710.69 28.61,127.08 42.65,212.07 42.65,256.59l0 84.99 6.24 246.88 -36.41 284.92c-12.48,0 -22.37,53.42 -30.69,161.08 -32.25,64.75 -48.89,131.13 -48.89,199.12l-85.31 199.12c-71.77,117.37 -151.35,230.69 -237.7,341.58 -58.77,99.56 -113.39,172.41 -164.36,217.74 -9.36,25.9 -159.68,142.46 -450.95,351.3 -188.29,131.12 -299.6,196.69 -335.49,196.69l-30.17 0c-106.11,-48.57 -158.64,-127.08 -158.64,-234.74 5.2,-126.27 29.64,-189.41 72.81,-189.41l36.93 -38.04 18.21 0 91.55 114.13 0 37.24c0,34.8 -12.49,63.94 -36.93,85.8l-42.66 0c-40.56,0 -62.93,-38.05 -67.1,-114.14l24.45 -28.33 18.73 0 11.96 19.43 -11.96 0 -6.25 -9.71 -6.24 0 -11.96 56.66c16.13,31.57 34.33,47.76 54.62,47.76 28.6,0 42.65,-25.91 42.65,-76.09 -13.01,-56.66 -33.29,-85.8 -60.86,-85.8 -60.86,9.71 -91.55,57.47 -91.55,142.46l-6.24 9.71 0 9.72c0,96.32 50.98,152.98 152.41,170.79 140.43,-54.24 239.78,-110.9 299.07,-170.79 18.21,-34.81 89.47,-94.71 213.26,-180.51 30.17,-34.8 46.81,-63.14 48.89,-84.99 0,-101.18 -106.11,-202.36 -317.28,-303.54 -69.18,0 -103.51,-9.71 -103.51,-29.14l6.25 -8.9 18.2 0c121.71,0 182.57,-66.38 182.57,-199.12l12.48 -114.13 -42.65 -1071.7 -30.69 -502.66c0,-95.51 -11.96,-196.69 -36.41,-303.54l6.24 -38.04c-28.61,-51 -55.13,-76.09 -79.58,-76.09 -78.02,0 -147.2,91.47 -207.01,275.21l-6.24 38.04 0 28.33c4.16,18.62 16.12,28.33 36.41,28.33l24.44 -9.71 0 -8.9c0,-31.57 -5.72,-47.76 -18.2,-47.76l0 -18.62 6.24 0c17.16,7.29 29.65,23.48 36.41,46.95l0 38.04c-6.24,25.1 -20.28,38.05 -42.65,38.05l-24.45 0c-40.57,-9.71 -60.86,-41.28 -60.86,-94.71l0 -28.33c0,-27.52 48.9,-134.36 146.16,-322.96l48.9 -113.32c0,-51 30.69,-76.09 91.54,-76.09l231.46 -9.71zm-24.45 930.04l6.24 227.45c8.33,0 11.97,8.91 11.97,28.33l-5.73 94.71 5.73 38.04 -5.73 47.76 5.73 46.94 -5.73 132.75 0 38.04 18.21 180.51 0 189.41c33.29,588.46 98.31,882.28 195.05,882.28l11.97 0c84.26,-67.99 168,-175.64 250.18,-322.15 88.42,-135.99 135.23,-231.5 139.92,-284.92 77.49,-218.55 115.99,-356.97 115.99,-417.67 32.77,-86.61 48.89,-156.22 48.89,-208.03l0 -284.92c0,-210.45 -16.12,-361.82 -48.89,-455.71 0,-73.66 -50.97,-184.55 -152.4,-331.87 -140.96,-176.46 -269.43,-265.5 -383.86,-265.5l-152.4 -38.04 -6.25 0c-24.44,0 -36.41,123.84 -36.41,369.91l-12.48 332.68z"/>
  <path id="_30" class="fil1 str0" d="M16238.51 3157.97l6.25 28.33c-102.47,194.26 -153.96,344.82 -153.96,452.47 -11.96,26.71 -24.45,116.56 -36.41,267.93l24.45 277.63 -6.25 9.72 6.25 12.14 -6.25 8.9 -6.24 0c-32.24,-107.65 -48.89,-210.45 -48.89,-308.39l0 -97.14 6.24 -38.04c0,-48.57 -20.28,-93.08 -60.86,-132.75 -250.18,12.95 -375.01,38.05 -375.01,76.09 -36.41,0 -54.62,16.19 -54.62,47.76l-30.69 500.23 12.49 56.66 -6.24 78.51c0,50.19 28.6,76.09 85.3,76.09 138.35,0 244.46,-76.89 318.32,-230.69l12.48 -37.23c-6.24,-27.52 -12.48,-40.47 -18.2,-40.47l-12.48 0 0 18.61 -11.97 0c4.69,-31.56 10.93,-47.75 18.21,-47.75l24.44 0c21.33,14.57 31.73,46.94 31.73,97.94 0,51.8 -28.6,131.94 -86.86,239.59 -72.82,184.55 -109.75,331.87 -109.75,440.34l0 29.14 24.45 39.66c24.44,-7.29 36.41,-37.24 36.41,-87.42l12.48 18.62 0 9.71c-5.2,58.28 -23.4,88.23 -55.14,88.23 -24.96,0 -39.52,-26.71 -42.64,-78.52 0,-59.9 8.32,-140.03 24.44,-239.59 -11.96,-56.66 -30.16,-84.99 -54.61,-84.99l-80.62 0c-77.51,12.14 -115.99,46.95 -115.99,103.61l0 59.89c0,237.17 6.24,393.39 18.2,469.48l0 106.84c19.24,242.83 35.37,365.06 48.89,365.06l-12.48 28.33c39.01,121.41 82.18,195.07 129.52,220.17 49.93,63.94 96.74,108.46 140.43,135.17 22.37,46.14 71.78,90.66 147.72,132.75 176.84,102.8 299.08,190.22 367.22,261.45l24.44 0c41.61,0 91.02,25.09 147.72,75.27l30.69 9.72 60.85 0c14.04,0 28.61,9.71 42.65,28.33 86.35,0 129.52,-47.76 129.52,-144.08 8.32,-3.24 16.13,-31.57 24.45,-85.8l-6.25 -38.05 24.45 -18.61c20.29,38.04 30.68,78.51 30.68,123.03 0,77.71 -28.6,166.75 -85.29,267.93l-36.93 40.47 -68.66 0c-43.69,0 -117.03,-38.86 -220.54,-115.75l-251.75 -123.85c-8.84,-15.37 -96.74,-73.65 -263.7,-173.22 -69.7,-45.32 -147.2,-84.18 -231.46,-115.74 0,-36.43 -83.75,-71.23 -251.23,-104.42l-6.24 0 -251.23 123.03 -24.44 9.72 -6.25 -9.72 0 -9.71c134.2,-217.74 201.3,-386.91 201.3,-506.71l36.41 -164.31 -6.25 -8.91 0 -9.71 6.25 -9.71 -6.25 -68.81 0 -153.79 6.25 -9.71 -6.25 -9.72 0 -8.9 -11.95 -403.1 6.24 0 -6.24 -9.71 0 -56.66 6.24 -50.19 -6.24 -38.04 11.95 -211.26 -11.95 -75.28 0 -154.6 -12.49 -135.18 6.24 -56.66c-20.29,-71.23 -40.57,-170.79 -60.85,-298.68 -7.28,-1.62 -19.25,-29.95 -36.41,-85.8 -46.81,-31.57 -85.31,-46.95 -116,-46.95 -69.17,15.38 -103.5,70.42 -103.5,163.51 0,23.47 20.28,42.9 60.86,56.66 16.12,-6.48 24.44,-25.1 24.44,-56.66l0 -30.76 -18.2 -38.05 -30.69 28.33 -6.24 0 0 -9.71 24.45 -38.04 12.48 0 30.16 47.75 0 68.81c-13,38.04 -35.36,56.66 -67.09,56.66 -37.45,0 -56.18,-54.24 -56.18,-163.51 19.25,-114.94 66.58,-173.22 141.48,-173.22l231.98 0c208.05,0 383.86,-34.8 526.9,-104.42 172.68,-143.27 265.26,-239.59 277.75,-288.97l30.16 -18.61zm-447.83 1690.1l6.24 0 23.93 38.05 0 9.71 -18.2 -18.62 -18.21 0 0 37.24 -11.96 -18.62 0 -18.62 18.2 -29.14z"/>
  <path id="_31" class="fil1 str0" d="M17383.33 3344.95c29.13,0 124.84,69.61 286.08,208.83l67.09 9.72 30.69 0c23.41,0 68.14,-32.38 134.2,-95.52l30.17 -8.9 6.24 8.9 0 19.43c-25.49,42.9 -52.02,102.8 -79.06,179.69l11.96 47.76 -6.24 9.71 18.72 179.7 -12.48 19.42 0 9.72c23.41,46.95 37.45,101.18 42.65,161.08 11.45,0 31.73,76.08 60.85,227.45 44.74,109.27 67.1,191.02 67.1,246.88 12.49,26.71 18.21,99.56 18.21,217.73l0 28.33c28.61,0 65.02,-28.33 109.75,-84.99l0 -18.61 -5.72 -9.72 0 -9.71 5.72 -9.71 6.24 0 18.21 29.14 0 56.66c0,74.47 -30.17,131.13 -91.55,170.79 0,33.19 10.4,58.28 30.69,76.09l-6.24 46.94c48.89,191.03 83.22,358.58 104.03,502.66 16.12,39.67 28.08,93.09 36.41,161.08l-6.25 0c90.51,341.58 179.97,543.94 268.39,607.08l109.75 85.8 0 18.62c-91.55,-40.48 -234.06,-129.51 -427.03,-265.5l-60.86 0c-81.14,0 -182.56,41.28 -304.8,123.84 -16.12,-9.71 -24.44,-19.42 -24.44,-29.14 131.07,-119.79 200.25,-227.45 207.53,-322.15 10.92,0 21.33,-145.7 30.17,-436.29l-18.21 -170.79c-7.8,0 -18.2,-56.66 -30.17,-170.79l-6.24 -9.71 6.24 -46.95c-55.13,-46.14 -89.46,-80.94 -104.02,-104.42 -72.82,21.86 -109.75,43.71 -109.75,66.38l-164.36 18.61 -48.89 0c-21.33,0 -39.53,9.72 -54.62,28.33l-30.69 0c0,19.43 -7.8,38.05 -24.44,57.47l6.24 8.91 0 9.71c-11.97,29.95 -26.53,159.46 -42.65,389.34l6.24 28.33 -6.24 151.36 0 76.09 -6.24 56.66c28.6,107.66 57.21,183.74 85.3,228.26l79.58 132.75 -12.48 18.62c-172.69,-107.66 -339.13,-161.08 -499.85,-161.08l-11.97 0c-46.81,0 -115.99,12.95 -207.53,38.04l-5.72 -9.71 0 -18.62c155.52,-79.32 261.11,-205.59 316.76,-379.62 60.85,-190.22 105.58,-354.54 134.19,-493.76 8.32,-2.43 16.13,-18.62 24.45,-46.95l-6.24 -28.33 -6.24 0 -243.43 170.79c-36.93,36.43 -55.13,73.66 -55.13,113.33l0 28.33c16.13,44.51 40.57,66.37 73.34,66.37 40.57,-13.76 60.86,-45.33 60.86,-94.7 -5.21,-28.33 -21.33,-50.19 -48.9,-66.38 -17.16,6.48 -31.2,22.67 -42.65,47.76 0,28.33 12.48,46.95 36.93,56.66l18.21 -46.95 -18.21 -19.42 -18.72 19.42 0 -9.71 18.72 -28.33 5.72 0 24.45 38.04 0 37.24 -18.21 29.14 -11.96 0c-36.93,-12.96 -55.13,-29.14 -55.13,-47.76l0 -47.76c0,-43.71 20.28,-66.37 60.85,-66.37 28.61,0 55.14,31.57 79.59,95.51l0 37.24c0,62.32 -30.69,100.37 -91.55,114.13l-42.65 0c-57.22,-18.62 -85.31,-56.66 -85.31,-114.13l0 -8.91c0,-118.99 34.34,-200.74 103.51,-246.88l316.77 -246.87 0 -8.91 -5.73 -9.71 42.66 -123.04c0,-71.23 16.12,-134.36 48.37,-190.21l0 -132.75c0,-31.57 14.56,-59.9 42.65,-84.99l42.65 -246.88c16.65,-71.23 30.69,-182.12 42.65,-331.87 -40.57,-182.12 -76.98,-293.02 -109.22,-331.87 0,-12.95 -34.86,-60.71 -104.03,-142.46l-11.97 -28.33 6.24 -9.71zm133.68 1565.45l36.93 18.62c202.85,-33.19 304.8,-55.05 304.8,-66.38 1.04,-12.95 15.08,-21.85 42.65,-28.33l0 -19.43 -18.21 0 0 -28.33 5.73 -38.04 -109.75 -569.03 -30.17 -94.71 0 -56.66 -12.49 0c-5.71,0 -22.36,53.43 -48.37,161.08 -36.93,213.69 -67.09,333.49 -91.54,360.2 -36.93,114.13 -62.94,233.93 -79.58,361.01z"/>
  <path id="_32" class="fil1 str0" d="M19086.78 2507.99c44.73,39.66 112.87,131.94 204.41,277.64 135.24,141.65 270.99,260.64 408.31,355.34 80.1,50.99 128.99,89.85 146.16,118.99l-11.96 18.61 -19.77 0 -70.22 -9.71c-110.79,28.33 -165.92,81.75 -165.92,159.46 -50.97,119.8 -76.46,454.9 -76.46,1005.32l0 127.89 -11.96 89.85c3.63,140.84 11.96,232.31 24.44,275.21l13.53 998.84 0 39.66 11.95 78.52 0 178.08c0,186.17 30.17,308.39 89.99,365.05l32.25 18.62c23.41,-10.52 40.05,-37.24 49.93,-77.71 -5.72,-46.14 -14.56,-68.8 -25.48,-68.8l-6.25 0 -12.48 18.62 0 21.04 12.48 29.14 -12.48 0 -11.96 -19.42 0 -9.72c2.08,-38.85 8.32,-59.09 18.2,-59.09l26.01 0c25.48,22.67 37.97,51.81 37.97,88.23 -10.92,91.47 -36.41,137.61 -75.94,137.61l-6.24 0c-75.94,0 -159.68,-49.38 -249.67,-147.32 -42.13,-14.57 -62.93,-27.52 -62.93,-40.47 46.81,-53.43 70.21,-102.8 70.21,-146.51 -13,-115.75 -49.93,-284.11 -109.74,-505.9l-88.42 -383.67c0,-33.19 -14.57,-106.04 -44.22,-218.55 0,-25.09 -36.41,-143.27 -109.75,-355.34 -51.49,-242.02 -85.3,-363.44 -100.38,-365.06l-7.8 0c-27.05,0 -58.78,213.69 -94.15,642.69l-7.8 8.91 0 30.76 32.24 178.07 0 127.89 51.5 405.53c26.53,77.71 66.58,149.75 120.67,216.12 4.16,20.24 55.14,63.14 153.96,127.89l0 9.72 -14.04 21.04c-78.02,0 -203.37,-55.85 -376.06,-168.36l-108.19 -8.91 -24.44 0c-22.37,0 -116,59.09 -280.36,177.27l-32.24 0 0 -9.71c38.48,-48.57 79.05,-114.94 120.67,-199.12 48.37,-12.15 106.1,-143.27 172.16,-393.39l51.49 -267.92 0 -97.14 12.49 -30.75 0 -59.09 11.96 -157.03 0 -30.76 6.24 -286.54 -6.24 -297.07 0 -97.13 -6.24 -68.8 12.48 -21.05c-25.48,-180.5 -53.05,-338.34 -82.18,-474.33 -58.26,-195.88 -117.55,-293.82 -178.41,-293.82l-94.66 0c-76.98,0 -115.47,32.38 -115.47,97.13 8.84,39.66 26.01,59.09 51.49,59.09 17.17,-9.71 26.01,-18.62 26.01,-28.33l0 -50.19 -37.97 -8.9 11.96 -21.85c33.81,0 50.46,27.52 50.46,80.94 -6.24,46.14 -20.81,68.8 -44.21,68.8 -59.82,-11.33 -89.99,-50.99 -89.99,-118.99l0 -8.9c5.2,-79.32 29.13,-118.99 71.78,-118.99l56.18 0c72.29,0 171.64,-81.75 298.55,-246.07 43.7,-65.56 86.34,-111.7 127.95,-140.03 3.13,-14.57 35.38,-43.71 96.23,-88.23 36.41,-40.47 74.9,-67.18 114.43,-77.7l11.96 0 14.05 18.61c-119.11,142.47 -178.41,260.64 -178.41,356.16l0 8.9c0,74.47 35.89,262.26 108.19,562.56 14.04,5.67 24.97,59.09 31.73,158.65 12.48,0 18.72,42.9 18.72,127.89 34.33,94.7 51.49,170.79 51.49,227.45 71.27,135.99 109.24,261.45 114.43,374.77 10.93,3.24 47.34,127.89 108.19,374.77l6.25 0c0,-18.62 8.32,-38.85 25.48,-59.09l26.01 -246.88 0 -97.13 32.25 -367.48c0,-303.54 -10.92,-582.8 -32.25,-836.96l-19.77 -30.76 0 -50.19 6.24 -9.71 0 -8.9c-12.48,0 -20.28,-56.66 -24.44,-168.37 -16.13,0 -29.13,-65.56 -37.97,-196.69 -24.45,-117.37 -80.1,-271.97 -166.45,-465.42l-25.48 -39.67 5.72 -9.71z"/>
  <path id="_33" class="fil1 str0" d="M20601.93 3107.78c82.18,12.95 123.28,34.81 123.28,66.38l0 30.76c0,39.66 -9.37,64.75 -27.58,76.08l-34.85 0 -14.04 -21.04 0 -21.86 14.04 -21.04 0 8.9 -6.23 34 33.8 0 21.33 -42.9c-8.32,-42.9 -29.13,-63.95 -62.94,-63.95 -87.38,10.52 -183.6,72.04 -289.19,182.12 -130.04,99.57 -196.62,419.29 -199.73,958.38l7.8 63.94c-6.24,36.43 -13.53,54.24 -21.33,54.24l7.28 76.08 0 42.9 -7.28 76.09c6.76,0 18.73,25.09 34.85,75.28l0 21.85c0,151.37 18.2,370.72 55.13,656.45l-20.28 33.19 0 21.86c13.52,0 33.81,132.74 61.38,398.24 18.2,97.94 64.49,177.27 138.35,237.16l47.34 76.09 0 21.05 -13.53 21.04c-42.65,-21.85 -115.99,-40.47 -219.5,-54.23 -123.27,0 -288.15,50.18 -495.16,151.36l-21.33 0 -21.33 -33.18 150.84 -118.18c59.82,-47.76 103.51,-123.03 131.08,-225.02l0 -24.29 -6.24 -73.66c11.96,0 26,-53.42 41.09,-161.07 13,-17 19.76,-42.9 19.76,-76.09l0 -118.18 -13.52 -33.18 0 -33.19c23.41,-156.22 34.85,-278.45 34.85,-365.06l0 -42.9 -21.33 -151.36 0 -128.7 15.08 -66.38 6.25 -602.22 0 -140.03c-8.84,-225.83 -30.17,-344.01 -62.42,-355.34 -63.98,-51 -114.43,-76.09 -150.84,-76.09l-21.32 0c-31.73,29.95 -47.34,73.66 -47.34,130.32 0,11.33 15.61,29.14 47.34,55.04l41.09 -24.28 0 12.14c-4.16,21.85 -17.68,33.19 -41.09,33.19 -29.65,0 -52.01,-25.1 -67.1,-76.09l0 -42.9c0,-70.42 24.97,-125.46 74.9,-163.51l33.29 12.14 97.26 0 268.39 -106.84c165.4,-109.28 292.32,-163.51 379.7,-163.51zm-758.88 431.43l7.28 0 21.33 33.19 0 9.71 -15.08 21.05 -13.53 -63.95z"/>
  <path id="_34" class="fil1 str0" d="M21131.95 2913.52l7.8 11.33c-49.93,160.27 -74.9,287.35 -74.9,382.05 5.2,64.76 24.97,166.75 59.82,305.97l-7.81 12.14c0,106.85 36.93,308.4 111.31,602.22 7.8,161.08 37.97,308.4 89.99,441.15 2.08,31.56 28.6,113.32 80.61,246.07l7.81 0c15.08,-106.85 42.65,-213.7 82.18,-319.73l118.59 -305.97c40.05,-267.11 104.02,-533.42 192.45,-798.91 15.08,0 22.36,-57.47 22.36,-170.79l0 -73.66c0,-41.28 -19.76,-93.9 -59.29,-158.65l0 -38.05 7.8 0c61.9,86.61 125.87,156.23 191.93,208.84 76.46,81.75 145.64,179.69 208.57,293.82l-15.08 25.91 -7.8 0 -59.3 -61.52 -30.16 0c-24.45,0 -46.29,20.23 -65.54,61.52l0 23.47 21.32 379.63c-8.32,0 -15.6,225.02 -21.32,675.88 0,71.23 11.96,174.02 36.41,308.39l0 305.97c15.08,29.95 22.88,58.28 22.88,84.99l-45.77 111.7 0 23.47c10.41,17.81 17.69,71.23 22.89,161.89 15.08,0 37.45,118.18 67.09,355.34 72.31,144.08 118.6,217.74 139.92,220.98 31.73,64.76 138.36,186.98 320.41,367.48 18.2,0 45.25,32.38 80.62,97.14l444.71 355.34c323.01,213.69 545.63,320.54 667.85,320.54l59.3 -12.14 22.88 12.14c79.07,-55.85 143.04,-133.56 191.94,-234.74 29.13,-87.42 44.21,-157.03 44.21,-208.83l0 -35.62c-37.45,-188.6 -84.26,-282.49 -140.44,-282.49l-36.41 0c-82.18,0 -141.48,73.66 -178.41,220.97 0,99.56 42.14,176.46 126.4,232.31 88.42,0 132.63,-49.37 132.63,-147.32l0 -46.94c0,-80.95 -36.93,-131.13 -111.31,-149.75l-28.61 0 -44.21 111.7c17.17,97.94 34.34,146.51 51.5,146.51l21.32 0c44.74,0 67.1,-28.33 67.1,-84.99 -6.76,-82.56 -29.13,-123.03 -67.1,-123.03l-28.61 61.51c0,64.76 19.77,97.14 59.3,97.14 0,16.99 -7.8,25.9 -22.88,25.9 -32.25,-21.86 -52.54,-46.95 -59.3,-73.66l0 -25.9c0,-64.76 27.57,-105.23 82.18,-120.61 43.69,58.28 65.54,127.89 65.54,208.03l-96.23 97.94c-48.37,-42.9 -83.22,-96.33 -103.5,-159.46l0 -38.04c0,-23.48 17.16,-80.14 52.01,-170.8 129,0 193.49,57.47 193.49,170.8l7.8 147.31 0 38.05c-20.8,46.94 -70.21,88.22 -149.8,123.03l-15.08 0c-58.78,0 -117.55,-118.99 -176.85,-357.77 105.59,-190.22 189.86,-291.4 251.75,-303.54 113.39,121.42 170.6,222.6 170.6,303.54 14.05,0 33.82,65.56 59.3,196.69 -9.36,77.71 -83.22,225.03 -222.62,443.57 -51.49,41.29 -115.99,61.52 -193.49,61.52l-124.83 0c-132.11,0 -374.5,-139.22 -726.63,-417.67l-141.99 -110.89c-19.25,-33.19 -48.9,-50.19 -88.43,-50.19 -371.89,-391.76 -564.87,-587.65 -578.91,-587.65 -127.95,-57.47 -231.46,-85.8 -311.04,-85.8l-201.3 61.52 0 -11.33c0,-12.95 42.66,-66.38 126.92,-161.89 98.31,-217.74 147.72,-369.1 147.72,-452.47l15.08 -220.98 -7.8 -516.42 15.6 -159.46 -7.8 -97.13 7.8 -61.52c-5.2,-169.17 -15.08,-292.21 -29.13,-369.91l0 -170.79 -7.8 0c0,50.99 -39.52,210.45 -118.59,479.18 0,47.76 -14.56,141.65 -44.21,282.5 -29.65,187.79 -54.09,281.68 -74.9,281.68 0,24.28 -11.96,56.66 -36.41,97.13 -38.49,208.84 -83.22,356.96 -134.19,443.57 -36.41,114.13 -58.78,170.79 -67.1,170.79 -23.41,0 -47.33,-159.45 -72.81,-479.18 -39.54,-398.24 -94.15,-705.02 -163.33,-919.52 -15.08,0 -22.88,-32.38 -22.88,-97.13l-82.19 -282.5 -7.28 -87.42c-9.36,0 -14.04,12.14 -14.04,37.24l-7.8 159.46 15.6 293.82c-4.16,139.23 -11.97,208.84 -22.88,208.84l7.28 184.55 0 12.14 -22.37 355.34c0,296.26 56.69,598.99 170.61,908.19l51.49 26.71 0 23.48 -51.49 0 -326.13 -61.52 -36.93 0c-63.98,0 -140.44,24.28 -229.9,73.66l-7.8 0c163.84,-212.08 245.5,-494.57 245.5,-846.67 0,-183.75 17.16,-408.77 52.02,-675.88l13.52 -270.36 -6.24 -208.83 0 -35.62 -15.09 -73.65 7.81 -49.38 -7.81 -170.79 0 -26.71 -15.08 -34.81 0 -26.71 15.08 -35.61 0 -37.24c0,-67.99 -14.56,-113.32 -44.21,-135.17 -128.99,12.14 -193.49,45.32 -193.49,99.56l0 11.33c0,66.37 17.16,111.7 52.02,135.17 23.92,-10.52 36.41,-39.66 36.41,-84.99l-13.53 -25.9 -15.6 0c-9.89,0 -15.09,12.14 -15.09,37.24l-13.52 0 0 -37.24c3.64,-24.28 18.72,-35.61 44.21,-35.61l28.61 49.37 0 23.48c0,64.75 -24.45,97.13 -72.82,97.13 -44.73,-31.57 -67.1,-84.18 -67.1,-158.65l0 -11.33c0,-109.28 56.7,-170.79 170.61,-185.36l103.5 -85 96.23 -85.8c82.18,-217.73 156.04,-349.67 222.1,-393.38zm2773.36 3938.72l7.8 14.57 0 35.61 -13.53 23.48 -7.8 0 7.8 -12.15 0 -11.33 -7.8 -35.61 7.8 -14.57 5.73 0z"/>
  <path id="_35" class="fil1 str0" d="M22628.89 3344.95c29.13,0 124.84,69.61 286.07,208.83l67.1 9.72 30.69 0c23.41,0 68.14,-32.38 134.19,-95.52l30.17 -8.9 6.24 8.9 0 19.43c-25.48,42.9 -52.01,102.8 -79.05,179.69l11.96 47.76 -6.24 9.71 18.72 179.7 -12.48 19.42 0 9.72c23.4,46.95 37.45,101.18 42.65,161.08 11.44,0 31.73,76.08 60.85,227.45 44.74,109.27 67.1,191.02 67.1,246.88 12.49,26.71 18.21,99.56 18.21,217.73l0 28.33c28.6,0 65.01,-28.33 109.74,-84.99l0 -18.61 -5.71 -9.72 0 -9.71 5.71 -9.71 6.25 0 18.2 29.14 0 56.66c0,74.47 -30.16,131.13 -91.54,170.79 0,33.19 10.4,58.28 30.69,76.09l-6.24 46.94c48.89,191.03 83.22,358.58 104.02,502.66 16.13,39.67 28.09,93.09 36.41,161.08l-6.24 0c90.51,341.58 179.97,543.94 268.39,607.08l109.75 85.8 0 18.62c-91.55,-40.48 -234.06,-129.51 -427.03,-265.5l-60.86 0c-81.14,0 -182.57,41.28 -304.8,123.84 -16.12,-9.71 -24.44,-19.42 -24.44,-29.14 131.07,-119.79 200.25,-227.45 207.53,-322.15 10.92,0 21.32,-145.7 30.17,-436.29l-18.21 -170.79c-7.8,0 -18.2,-56.66 -30.17,-170.79l-6.24 -9.71 6.24 -46.95c-55.13,-46.14 -89.46,-80.94 -104.02,-104.42 -72.82,21.86 -109.75,43.71 -109.75,66.38l-164.37 18.61 -48.88 0c-21.33,0 -39.54,9.72 -54.62,28.33l-30.69 0c0,19.43 -7.8,38.05 -24.44,57.47l6.24 8.91 0 9.71c-11.97,29.95 -26.53,159.46 -42.65,389.34l6.24 28.33 -6.24 151.36 0 76.09 -6.25 56.66c28.61,107.66 57.22,183.74 85.31,228.26l79.58 132.75 -12.48 18.62c-172.69,-107.66 -339.14,-161.08 -499.85,-161.08l-11.97 0c-46.81,0 -115.99,12.95 -207.53,38.04l-5.73 -9.71 0 -18.62c155.52,-79.32 261.11,-205.59 316.77,-379.62 60.85,-190.22 105.58,-354.54 134.19,-493.76 8.32,-2.43 16.13,-18.62 24.45,-46.95l-6.24 -28.33 -6.24 0 -243.43 170.79c-36.93,36.43 -55.13,73.66 -55.13,113.33l0 28.33c16.12,44.51 40.57,66.37 73.33,66.37 40.58,-13.76 60.86,-45.33 60.86,-94.7 -5.2,-28.33 -21.32,-50.19 -48.89,-66.38 -17.16,6.48 -31.2,22.67 -42.65,47.76 0,28.33 12.48,46.95 36.93,56.66l18.21 -46.95 -18.21 -19.42 -18.72 19.42 0 -9.71 18.72 -28.33 5.72 0 24.45 38.04 0 37.24 -18.21 29.14 -11.96 0c-36.93,-12.96 -55.13,-29.14 -55.13,-47.76l0 -47.76c0,-43.71 20.28,-66.37 60.85,-66.37 28.61,0 55.13,31.57 79.58,95.51l0 37.24c0,62.32 -30.69,100.37 -91.55,114.13l-42.64 0c-57.22,-18.62 -85.31,-56.66 -85.31,-114.13l0 -8.91c0,-118.99 34.34,-200.74 103.51,-246.88l316.76 -246.87 0 -8.91 -5.72 -9.71 42.65 -123.04c0,-71.23 16.13,-134.36 48.38,-190.21l0 -132.75c0,-31.57 14.56,-59.9 42.65,-84.99l42.65 -246.88c16.65,-71.23 30.69,-182.12 42.65,-331.87 -40.57,-182.12 -76.98,-293.02 -109.23,-331.87 0,-12.95 -34.85,-60.71 -104.03,-142.46l-11.96 -28.33 6.24 -9.71zm133.68 1565.45l36.93 18.62c202.85,-33.19 304.8,-55.05 304.8,-66.38 1.04,-12.95 15.08,-21.85 42.64,-28.33l0 -19.43 -18.2 0 0 -28.33 5.73 -38.04 -109.75 -569.03 -30.17 -94.71 0 -56.66 -12.49 0c-5.72,0 -22.36,53.43 -48.37,161.08 -36.93,213.69 -67.09,333.49 -91.54,360.2 -36.93,114.13 -62.94,233.93 -79.58,361.01z"/>
  <path id="_36" class="fil1 str0" d="M24905.52 3038.98l36.41 0c56.7,0 91.55,56.66 103.51,170.79l0 9.71c0,161.08 -36.41,310.02 -109.75,446l6.24 8.91 0 9.71c-68.13,137.61 -122.74,270.35 -164.36,398.24 -105.58,183.75 -166.96,351.3 -183.08,502.66l0 19.43c0,131.13 18.2,209.65 55.13,237.17l18.2 0 24.45 -19.43 0 -46.95 11.96 -19.42 18.21 28.33 0 9.71c0,69.61 -18.21,104.42 -54.62,104.42l-24.44 0c-43.7,0 -70.22,-44.52 -79.06,-132.75l0 -94.71c0,-148.93 32.25,-297.06 97.27,-445.99l18.2 -76.09 0 -28.33c-14.05,-88.23 -60.86,-132.75 -139.92,-132.75l-12.48 0c-114.43,20.24 -266.83,169.17 -457.2,446 -75.94,142.46 -114.43,246.07 -115.47,312.44l-6.24 9.72c-48.9,205.59 -73.34,382.86 -73.34,530.99l0 19.42 -11.97 76.09 0 8.9c13.01,160.27 39.54,280.07 79.07,361.01 42.65,146.51 105.58,276.02 189.32,388.53 0,21.05 32.26,67.99 97.27,142.46 4.16,13.76 60.86,71.23 170.6,170.79 0,13.76 42.66,51.81 127.96,113.32l91.54 101.99 -6.24 9.72 463.44 237.16c120.67,63.14 281.39,110.89 481.65,142.46 28.09,41.28 42.65,79.33 42.65,114.13l0 66.38c-18.21,113.32 -55.14,169.98 -109.75,169.98l-18.21 0c-16.64,-8.9 -24.44,-31.57 -24.44,-66.37l5.72 -8.91 12.49 0 -6.25 8.91 0 19.42 18.2 28.33c48.9,-33.18 73.34,-83.37 73.34,-151.36 0,-66.38 -103.5,-120.61 -311.04,-161.89 -261.11,-88.23 -531.05,-227.45 -810.37,-416.86 -97.78,-61.52 -189.33,-133.56 -274.63,-216.12 -149.28,-161.08 -224.18,-249.31 -225.22,-265.49 -18.2,-36.43 -40.57,-68 -67.1,-94.71 -113.9,-297.06 -170.6,-496.18 -170.6,-597.36 -32.77,-142.46 -48.89,-263.07 -48.89,-361.01 0,-149.75 32.76,-348.87 97.78,-597.37 24.97,-52.61 47.33,-121.41 66.58,-208.83 46.81,-86.61 97.79,-165.94 152.4,-237.17 178.93,-208.83 319.36,-313.25 420.79,-313.25 37.45,-25.09 120.67,-46.94 249.67,-66.37 154.47,-86.61 252.26,-174.84 292.83,-265.5 44.74,-113.32 67.1,-195.88 67.1,-246.07 -17.16,-69.61 -33.81,-104.41 -48.9,-104.41l-11.95 0c-9.37,0 -17.69,21.85 -24.46,66.37l-12.47 0 -18.21 -28.33c8.32,-57.47 18.21,-85.8 30.68,-85.8z"/>
  <path id="_37" class="fil1 str0" d="M25767.91 3107.78c82.18,12.95 123.28,34.81 123.28,66.38l0 30.76c0,39.66 -9.37,64.75 -27.58,76.08l-34.85 0 -14.04 -21.04 0 -21.86 14.04 -21.04 0 8.9 -6.23 34 33.8 0 21.33 -42.9c-8.32,-42.9 -29.13,-63.95 -62.94,-63.95 -87.38,10.52 -183.6,72.04 -289.19,182.12 -130.04,99.57 -196.62,419.29 -199.73,958.38l7.8 63.94c-6.24,36.43 -13.53,54.24 -21.33,54.24l7.28 76.08 0 42.9 -7.28 76.09c6.76,0 18.73,25.09 34.85,75.28l0 21.85c0,151.37 18.2,370.72 55.13,656.45l-20.28 33.19 0 21.86c13.52,0 33.81,132.74 61.38,398.24 18.2,97.94 64.49,177.27 138.35,237.16l47.34 76.09 0 21.05 -13.53 21.04c-42.65,-21.85 -115.99,-40.47 -219.5,-54.23 -123.27,0 -288.15,50.18 -495.16,151.36l-21.33 0 -21.33 -33.18 150.84 -118.18c59.82,-47.76 103.51,-123.03 131.08,-225.02l0 -24.29 -6.24 -73.66c11.96,0 26,-53.42 41.09,-161.07 13,-17 19.76,-42.9 19.76,-76.09l0 -118.18 -13.52 -33.18 0 -33.19c23.41,-156.22 34.85,-278.45 34.85,-365.06l0 -42.9 -21.33 -151.36 0 -128.7 15.08 -66.38 6.25 -602.22 0 -140.03c-8.84,-225.83 -30.17,-344.01 -62.42,-355.34 -63.98,-51 -114.43,-76.09 -150.84,-76.09l-21.32 0c-31.73,29.95 -47.34,73.66 -47.34,130.32 0,11.33 15.61,29.14 47.34,55.04l41.09 -24.28 0 12.14c-4.16,21.85 -17.68,33.19 -41.09,33.19 -29.65,0 -52.02,-25.1 -67.1,-76.09l0 -42.9c0,-70.42 24.97,-125.46 74.9,-163.51l33.29 12.14 97.26 0 268.39 -106.84c165.4,-109.28 292.32,-163.51 379.7,-163.51zm-758.88 431.43l7.28 0 21.33 33.19 0 9.71 -15.08 21.05 -13.53 -63.95z"/>
  <path id="_38" class="fil1 str0" d="M26252.15 3306.9l158.65 0c111.83,0 190.88,31.57 237.7,94.71 11.44,0 27.56,22.66 48.89,66.37 78.02,47.76 135.23,123.85 170.6,228.26l103.51 151.37c0,39.66 24.44,112.51 73.34,218.55 40.57,71.23 60.85,200.74 60.85,388.53l6.25 85.8 0 378.81c-38.49,148.94 -71.26,256.59 -97.79,322.97 -57.73,132.74 -122.75,303.54 -195.05,512.37 -7.8,0 -11.96,12.14 -11.96,37.23 -19.25,0 -74.38,92.28 -164.88,275.21 -30.17,51 -60.86,76.09 -91.03,76.09 -63.98,0 -123.27,-34.81 -176.84,-104.42 -52.02,-36.42 -117.04,-93.08 -195.05,-170.79 -12.49,0 -58.78,-38.04 -140.44,-113.32 -88.42,-62.33 -147.2,-150.55 -176.85,-266.3l-109.75 -360.2 -5.72 0 5.72 -46.95c-17.16,-51 -29.13,-177.27 -36.41,-379.63 -11.96,0 -18.2,-57.47 -18.2,-170.79l18.2 -19.42 -6.24 -94.71 0 -161.08c0,-18.61 12.48,-59.89 36.93,-123.03 0,-33.19 34.33,-147.32 103.51,-341.58l67.1 -161.08c0,-30.76 46.81,-99.56 139.91,-208.84 32.77,0 79.58,-34.8 140.44,-104.41l54.61 -9.72zm-365.65 1223.87l0 142.46c0,207.22 20.28,339.97 60.85,398.25 0,23.47 32.77,131.12 97.79,322.15 37.45,26.71 108.71,112.51 213.25,256.59 80.11,61.52 139.4,124.66 176.85,189.41l79.06 28.33 109.75 -113.32c50.97,-64.75 101.95,-178.88 152.4,-341.58 89.46,-291.4 134.2,-547.18 134.2,-768.97 -16.13,-162.69 -42.66,-292.2 -79.07,-388.53 -9.36,-86.61 -54.09,-210.45 -134.19,-369.91l-115.99 -142.46 -182.57 -113.32 -48.89 0c-26.53,0 -87.38,53.42 -183.09,161.08 -67.1,91.46 -123.79,208.83 -170.6,350.48l-109.75 389.34z"/>
  <path id="_39" class="fil1 str0" d="M27833.88 2507.99c44.74,39.66 112.87,131.94 204.41,277.64 135.24,141.65 271,260.64 408.31,355.34 80.1,50.99 129,89.85 146.16,118.99l-11.96 18.61 -19.77 0 -70.22 -9.71c-110.79,28.33 -165.92,81.75 -165.92,159.46 -50.97,119.8 -76.46,454.9 -76.46,1005.32l0 127.89 -11.96 89.85c3.64,140.84 11.96,232.31 24.44,275.21l13.53 998.84 0 39.66 11.96 78.52 0 178.08c0,186.17 30.17,308.39 89.99,365.05l32.24 18.62c23.41,-10.52 40.05,-37.24 49.94,-77.71 -5.73,-46.14 -14.57,-68.8 -25.49,-68.8l-6.24 0 -12.48 18.62 0 21.04 12.48 29.14 -12.48 0 -11.97 -19.42 0 -9.72c2.08,-38.85 8.32,-59.09 18.21,-59.09l26 0c25.49,22.67 37.97,51.81 37.97,88.23 -10.92,91.47 -36.41,137.61 -75.94,137.61l-6.24 0c-75.94,0 -159.68,-49.38 -249.66,-147.32 -42.14,-14.57 -62.94,-27.52 -62.94,-40.47 46.81,-53.43 70.22,-102.8 70.22,-146.51 -13.01,-115.75 -49.94,-284.11 -109.75,-505.9l-88.42 -383.67c0,-33.19 -14.57,-106.04 -44.22,-218.55 0,-25.09 -36.41,-143.27 -109.74,-355.34 -51.5,-242.02 -85.31,-363.44 -100.39,-365.06l-7.8 0c-27.05,0 -58.78,213.69 -94.15,642.69l-7.8 8.91 0 30.76 32.25 178.07 0 127.89 51.49 405.53c26.53,77.71 66.58,149.75 120.68,216.12 4.15,20.24 55.13,63.14 153.95,127.89l0 9.72 -14.04 21.04c-78.02,0 -203.37,-55.85 -376.06,-168.36l-108.19 -8.91 -24.44 0c-22.37,0 -115.99,59.09 -280.35,177.27l-32.25 0 0 -9.71c38.49,-48.57 79.06,-114.94 120.67,-199.12 48.37,-12.15 106.11,-143.27 172.16,-393.39l51.5 -267.92 0 -97.14 12.48 -30.75 0 -59.09 11.97 -157.03 0 -30.76 6.24 -286.54 -6.24 -297.07 0 -97.13 -6.25 -68.8 12.49 -21.05c-25.49,-180.5 -53.06,-338.34 -82.19,-474.33 -58.25,-195.88 -117.54,-293.82 -178.4,-293.82l-94.66 0c-76.99,0 -115.48,32.38 -115.48,97.13 8.85,39.66 26.01,59.09 51.49,59.09 17.17,-9.71 26.02,-18.62 26.02,-28.33l0 -50.19 -37.97 -8.9 11.95 -21.85c33.82,0 50.46,27.52 50.46,80.94 -6.24,46.14 -20.81,68.8 -44.21,68.8 -59.82,-11.33 -89.98,-50.99 -89.98,-118.99l0 -8.9c5.2,-79.32 29.12,-118.99 71.78,-118.99l56.17 0c72.3,0 171.64,-81.75 298.55,-246.07 43.7,-65.56 86.35,-111.7 127.96,-140.03 3.12,-14.57 35.37,-43.71 96.22,-88.23 36.41,-40.47 74.9,-67.18 114.44,-77.7l11.95 0 14.05 18.61c-119.11,142.47 -178.41,260.64 -178.41,356.16l0 8.9c0,74.47 35.89,262.26 108.19,562.56 14.05,5.67 24.97,59.09 31.73,158.65 12.49,0 18.73,42.9 18.73,127.89 34.32,94.7 51.49,170.79 51.49,227.45 71.26,135.99 109.23,261.45 114.43,374.77 10.92,3.24 47.33,127.89 108.18,374.77l6.25 0c0,-18.62 8.32,-38.85 25.49,-59.09l26 -246.88 0 -97.13 32.25 -367.48c0,-303.54 -10.92,-582.8 -32.25,-836.96l-19.76 -30.76 0 -50.19 6.24 -9.71 0 -8.9c-12.48,0 -20.29,-56.66 -24.45,-168.37 -16.12,0 -29.13,-65.56 -37.97,-196.69 -24.44,-117.37 -80.1,-271.97 -166.44,-465.42l-25.49 -39.67 5.72 -9.71z"/>
 </g>
</svg>
