<?xml version="1.0" encoding="UTF-8"?>
<!DOCTYPE svg PUBLIC "-//W3C//DTD SVG 1.1//EN" "http://www.w3.org/Graphics/SVG/1.1/DTD/svg11.dtd">
<!-- Creator: CorelDRAW -->
<svg xmlns="http://www.w3.org/2000/svg" xml:space="preserve" width="210mm" height="297mm" version="1.1" style="shape-rendering:geometricPrecision; text-rendering:geometricPrecision; image-rendering:optimizeQuality; fill-rule:evenodd; clip-rule:evenodd"
viewBox="0 0 21000 29700"
 xmlns:xlink="http://www.w3.org/1999/xlink"
 xmlns:xodm="http://www.corel.com/coreldraw/odm/2003">
 <defs>
  <style type="text/css">
   <![CDATA[
    .fil0 {fill:#373435;fill-rule:nonzero}
   ]]>
  </style>
 </defs>
 <g id="Capa_x0020_1">
  <metadata id="CorelCorpID_0Corel-Layer"/>
  <path class="fil0" d="M4549.73 15438.4c184.24,-251.57 261.02,-503.14 314.75,-815.69 7.67,-60.99 46.06,-243.95 23.03,-297.31 -23.03,-53.36 -76.76,-76.23 -122.83,-76.23 -53.74,0 -107.47,30.49 -145.86,83.85 -130.5,213.46 -330.09,373.55 -483.62,571.75 -245.66,320.18 -990.3,1052.01 -1450.9,1052.01 -191.92,0 -284.04,-137.21 -337.77,-304.93 -130.51,-335.42 -161.21,-708.96 -145.85,-1067.26 38.37,-716.59 253.33,-1593.27 660.19,-2195.51 99.79,-152.46 276.36,-381.16 491.3,-381.16 145.86,0 345.46,167.71 406.87,312.56 53.74,137.21 61.41,289.68 46.06,434.52 -7.68,190.59 -53.74,373.54 -69.09,556.5 0,83.86 61.41,129.6 115.14,129.6 53.75,0 99.81,-30.49 115.15,-91.48 0,-22.87 23.03,-45.74 30.72,-68.61 92.12,-266.82 176.55,-564.12 145.85,-853.81 -53.73,-457.4 -383.83,-853.81 -859.79,-853.81 -69.09,0 -138.18,7.63 -207.27,22.87 -591.1,175.34 -982.61,846.19 -1220.59,1379.82 -284.03,632.73 -475.94,1341.7 -460.6,2035.42 15.36,762.33 330.1,1707.61 1243.63,1707.61 736.95,0 1519.98,-716.59 1911.48,-1280.71z"/>
  <path id="_1" class="fil0" d="M6115.77 16002.52c53.73,-60.98 30.7,-152.46 -23.03,-213.45 -7.67,-7.62 -53.73,-38.11 -61.42,-45.74 -15.34,-30.49 -15.34,-137.22 -15.34,-167.71 0,-564.12 15.34,-1128.25 38.37,-1692.37 23.03,-480.27 46.06,-968.16 38.39,-1448.43 0,-243.94 30.7,-739.45 -191.92,-846.18 -30.7,-15.25 -53.73,-15.25 -84.44,-15.25 -145.86,0 -191.92,137.22 -222.62,251.57 -261.02,952.91 -299.39,1966.81 -276.36,2957.84 7.67,365.92 23.03,762.33 207.27,1074.88 76.76,129.6 237.97,205.83 383.83,221.08 84.45,7.62 145.85,-15.25 207.27,-76.24l0 0z"/>
  <path id="_2" class="fil0" d="M7927.47 15339.3c99.79,-175.34 191.91,-365.92 284.03,-556.5 61.42,282.06 261.02,556.5 583.43,556.5 15.36,0 30.71,0 46.06,0 153.54,-22.87 330.09,-121.97 322.42,-282.06 0,-7.63 -23.03,-91.48 -30.7,-106.73 -15.36,-121.97 -99.8,-228.7 -153.54,-343.05 -23.03,-53.36 -30.7,-106.72 -46.06,-167.71 -46.06,-289.68 -7.67,-586.99 15.36,-884.3 7.67,-137.22 53.73,-274.44 30.7,-404.04 -15.35,-106.72 -99.79,-175.33 -191.91,-175.33 -46.07,0 -92.13,15.24 -130.51,53.36 -46.06,38.12 -138.18,259.19 -161.2,320.18 -30.72,-297.31 -168.9,-655.6 -522.02,-655.6 -483.64,0 -982.62,937.66 -1136.15,1318.83 -122.83,282.06 -214.95,586.99 -245.65,891.92 -23.03,175.34 -23.03,350.67 23.03,518.38 76.76,274.44 276.36,465.03 568.07,465.03 383.84,0 568.08,-259.2 744.64,-548.88zm-606.46 -617.49c122.82,-586.99 322.42,-1006.27 713.93,-1463.67 61.41,76.23 237.98,350.67 322.43,388.79 -230.31,404.03 -683.23,1189.23 -1051.71,1463.67 -23.03,-129.6 -7.68,-259.19 15.35,-388.79z"/>
  <path id="_3" class="fil0" d="M10598.95 15026.74c214.95,-274.44 368.48,-586.99 529.7,-891.92 99.79,365.92 184.24,602.24 514.33,823.31 23.03,15.25 53.74,22.87 76.77,22.87 76.76,0 153.53,-53.36 168.88,-129.59 0,-30.5 -15.35,-167.71 -15.35,-198.21 -7.68,-312.55 -92.12,-1295.96 -330.1,-1532.28 -61.41,-60.99 -138.18,-91.48 -222.62,-91.48 -153.54,0 -253.33,99.1 -330.1,221.08 -138.18,221.07 -276.36,442.15 -422.21,655.6 -138.18,190.58 -268.69,388.79 -422.22,571.75 -61.41,-312.56 -23.03,-640.36 -30.71,-960.54 -7.67,-91.48 -7.67,-175.33 -30.7,-259.19 -30.71,-114.35 -122.83,-198.21 -214.95,-198.21 -237.98,0 -322.42,442.16 -345.45,609.87 -61.42,320.18 -84.45,655.6 -38.39,975.78 46.06,343.05 214.95,678.47 614.14,678.47 207.26,0 383.83,-137.22 498.98,-297.31z"/>
  <path id="_4" class="fil0" d="M15043.74 16330.33c-7.67,-68.61 -69.09,-121.98 -76.77,-190.59 -46.06,-282.06 -107.47,-556.5 -153.53,-838.56 -92.12,-655.6 -122.83,-1334.07 -61.41,-2004.92 0,-15.25 46.06,-45.74 53.73,-60.99 307.07,-335.42 667.88,-846.19 706.25,-1311.21 7.69,-83.85 7.69,-167.71 -30.7,-243.94 -61.42,-137.22 -191.91,-198.21 -322.42,-198.21 -652.52,0 -1028.67,1395.07 -1105.44,1875.33 -7.67,-45.74 -7.67,-83.85 -15.35,-129.59 -23.03,-251.57 -199.59,-495.52 -475.95,-495.52 -122.83,-7.62 -245.66,45.74 -353.13,114.35 -545.05,396.41 -905.85,1402.69 -990.29,2043.04 -30.71,213.46 -38.38,442.15 15.35,655.61 76.77,251.57 291.71,411.65 537.37,411.65 268.68,0 483.63,-190.58 629.49,-396.41 184.24,-251.56 330.09,-526 475.94,-808.07 15.36,-38.11 38.39,-76.23 61.42,-114.34 -7.67,251.56 15.36,495.51 53.74,739.45 46.06,266.82 122.82,541.26 284.03,762.33 46.06,68.61 237.99,243.95 314.75,274.44 69.09,22.87 138.18,68.61 214.94,83.86 115.15,30.49 237.98,-45.74 237.98,-167.71l0 0zm-61.41 -4177.57c23.03,-53.36 76.77,-205.83 130.5,-236.32 -15.35,175.34 -107.47,335.43 -199.59,480.27 15.35,-76.23 46.06,-160.09 69.09,-243.95zm-1965.23 2096.41c115.15,-343.05 276.36,-739.46 537.36,-998.65 30.72,-15.25 61.42,-53.37 92.12,-45.74 69.09,38.11 115.15,121.97 153.54,198.2 30.7,60.99 92.12,259.19 161.21,289.69 7.68,0 38.39,-7.63 30.71,7.62 -199.59,404.04 -744.64,1250.22 -1113.11,1539.91 -23.03,-335.43 23.03,-678.48 138.17,-991.03z"/>
  <path id="_5" class="fil0" d="M16479.27 12556.8c46.06,-83.86 69.09,-190.58 46.06,-282.06 -23.03,-91.48 -130.5,-457.4 -184.24,-541.26 -30.7,-45.74 -76.76,-68.61 -130.5,-68.61 -46.06,0 -99.79,22.87 -130.51,68.61 -99.79,129.6 -122.82,304.93 -130.49,465.02 0,221.08 61.4,472.65 322.42,472.65 84.44,0 168.88,-38.12 207.26,-114.35zm-30.7 3026.44c7.67,-60.98 -23.03,-121.97 -38.39,-182.96 -23.03,-83.85 -23.03,-175.33 -23.03,-259.19 -7.67,-282.06 -23.03,-564.12 -15.35,-846.18 7.68,-213.45 69.09,-830.94 -69.09,-998.65 -30.7,-38.12 -76.76,-60.99 -122.82,-60.99 -84.45,0 -184.24,68.61 -237.99,160.09 -115.15,182.96 -161.21,411.66 -214.94,625.11 -84.44,343.05 -115.15,708.97 -76.76,1067.26 0,60.99 61.41,282.06 84.44,327.8 46.05,106.73 92.11,213.45 176.56,289.69 76.76,76.23 184.24,129.59 284.04,129.59 168.88,0 222.62,-106.72 253.33,-251.57l0 0z"/>
  <path id="_6" class="fil0" d="M18244.91 15339.3c99.79,-175.34 191.91,-365.92 284.03,-556.5 61.42,282.06 261.02,556.5 583.43,556.5 15.36,0 30.71,0 46.06,0 153.54,-22.87 330.09,-121.97 322.42,-282.06 0,-7.63 -23.03,-91.48 -30.7,-106.73 -15.36,-121.97 -99.8,-228.7 -153.54,-343.05 -23.03,-53.36 -30.7,-106.72 -46.06,-167.71 -46.06,-289.68 -7.67,-586.99 15.36,-884.3 7.67,-137.22 53.73,-274.44 30.7,-404.04 -15.35,-106.72 -99.79,-175.33 -191.91,-175.33 -46.06,0 -92.13,15.24 -130.51,53.36 -46.06,38.12 -138.18,259.19 -161.2,320.18 -30.72,-297.31 -168.9,-655.6 -522.02,-655.6 -483.64,0 -982.62,937.66 -1136.15,1318.83 -122.83,282.06 -214.95,586.99 -245.65,891.92 -23.03,175.34 -23.03,350.67 23.03,518.38 76.76,274.44 276.36,465.03 568.07,465.03 383.84,0 568.08,-259.2 744.64,-548.88zm-606.46 -617.49c122.82,-586.99 322.42,-1006.27 713.93,-1463.67 61.41,76.23 237.98,350.67 322.43,388.79 -230.31,404.03 -683.23,1189.23 -1051.71,1463.67 -23.03,-129.6 -7.68,-259.19 15.35,-388.79z"/>
 </g>
</svg>
